<?xml version="1.0" encoding="utf-8"?>
<!-- Generator: Adobe Illustrator 25.4.1, SVG Export Plug-In . SVG Version: 6.00 Build 0)  -->
<svg version="1.1" id="Layer_1" xmlns="http://www.w3.org/2000/svg" xmlns:xlink="http://www.w3.org/1999/xlink" x="0px" y="0px"
	 viewBox="0 0 552.3 150" enable-background="new 0 0 552.3 150" xml:space="preserve">
<g>
	<path d="M118.7,3.1H26.6c-12.6,0-23,10.8-23,24v96c0,13.2,10.3,24,23,24h92.1c12.6,0,23-10.8,23-24v-96
		C141.7,13.9,131.4,3.1,118.7,3.1z M106.1,104.1c-1.1,2.9-2.9,5.3-5.3,7.4c-2.4,2.1-5.5,3.7-9.3,4.9s-8.2,1.8-13.4,1.8h-37V34.4
		h39.2c7.2,0,13,1.7,17.4,5.2c4.4,3.5,6.5,8.7,6.5,15.6c0,4.2-1,7.9-3,10.9s-4.8,5.4-8.5,7v0.2c5,1.1,8.7,3.6,11.3,7.3
		c2.6,3.8,3.8,8.6,3.8,14.3C107.8,98.2,107.2,101.3,106.1,104.1z"/>
	<path d="M80.1,80.2H55.2v26.2h24.9c4.3,0,7.6-1.2,10-3.5c2.4-2.3,3.6-5.6,3.6-9.8s-1.2-7.3-3.6-9.6C87.7,81.2,84.4,80.2,80.1,80.2z
		"/>
	<path d="M86.7,66.6c2.3-2,3.4-4.9,3.4-8.7c0-4.2-1-7.2-3-8.9s-5-2.6-8.8-2.6h-23v23.2h22.9C81.6,69.6,84.4,68.6,86.7,66.6z"/>
	<path d="M208.5,71c3-1.6,5.3-3.6,6.8-6.2c1.5-2.6,2.3-5.3,2.3-8.2c0-3.1-0.8-6.1-2.5-8.9c-1.7-2.8-4-4.9-7-6.3
		c-3-1.4-6.9-2.1-11.9-2.1h-24.3v67.5h24.5c4.2,0,7.7-0.3,10.5-1.1c2.8-0.7,5.2-1.8,7.1-3.3c1.9-1.5,3.5-3.6,4.8-6.3
		s1.9-5.6,1.9-8.8c0-3.9-1.1-7.3-3.2-10.2C215.4,74.2,212.4,72.2,208.5,71z M180.4,47.3h13c4.7,0,8,0.3,9.9,0.9
		c1.9,0.6,3.4,1.8,4.4,3.5s1.5,3.7,1.5,5.9c0,2.4-0.6,4.3-1.7,5.9c-1.1,1.6-2.7,2.7-4.9,3.4c-1.7,0.5-4.4,0.8-8.2,0.8h-14V47.3z
		 M210.6,93c-0.9,1.7-2,2.9-3.3,3.8c-1.4,0.8-3,1.4-5,1.8c-1.1,0.2-3,0.3-5.8,0.3h-16.1h-0.1V75.7h15c4.1,0,7.3,0.3,9.5,1.1
		c2.2,0.7,4,2,5.2,3.9c1.3,1.9,1.9,4.1,1.9,6.6C211.9,89.5,211.5,91.4,210.6,93z"/>
	<path d="M250.7,56.9c-5.8,0-10.8,1.8-14.8,5.4c-4.9,4.3-7.3,11-7.3,20.1c0,8.3,2,14.6,6.2,19.1c4,4.4,9.3,6.6,15.9,6.6
		c4.1,0,7.8-1,11.3-3c3.4-2,6.1-4.8,7.9-8.4c1.8-3.6,2.7-8.6,2.7-14.9c0-7.8-2-13.9-6.1-18.3C262.4,59.1,257.2,56.9,250.7,56.9z
		 M260.5,96.5c-2.7,3.1-6,4.7-9.9,4.7c-4,0-7.3-1.6-9.9-4.7s-3.9-7.8-3.9-14.1c0-6.2,1.3-10.9,3.9-14c2.6-3.1,5.9-4.7,9.9-4.7
		c3.9,0,7.2,1.6,9.8,4.7c2.7,3.2,4,7.7,4,13.8C264.4,88.6,263.1,93.4,260.5,96.5z"/>
	<path d="M301.1,56.9c-5.8,0-10.8,1.8-14.8,5.4c-4.9,4.3-7.3,11-7.3,20.1c0,8.3,2,14.6,6.2,19.1c4,4.4,9.3,6.6,15.9,6.6
		c4.1,0,7.8-1,11.3-3c3.4-2,6.1-4.8,7.9-8.4c1.8-3.6,2.7-8.6,2.7-14.9c0-7.8-2-13.9-6.1-18.3C312.8,59.1,307.6,56.9,301.1,56.9z
		 M310.9,96.5c-2.7,3.1-6,4.7-9.9,4.7c-4,0-7.3-1.6-9.9-4.7c-2.6-3.1-3.9-7.8-3.9-14.1c0-6.2,1.3-10.9,3.9-14
		c2.6-3.1,5.9-4.7,9.9-4.7c3.9,0,7.2,1.6,9.8,4.7c2.7,3.2,4,7.7,4,13.8C314.8,88.6,313.5,93.4,310.9,96.5z"/>
	<path d="M346.1,99.8c-1.2,0-2.1-0.2-2.7-0.6c-0.7-0.4-1.1-0.9-1.4-1.6c-0.3-0.7-0.4-2.2-0.4-4.6V64.5h8V58h-8V40.9l-7.9,5V58h-5.8
		v6.3h5.8v28.2c0,5,0.4,8.2,1,9.8c0.7,1.6,1.8,2.8,3.4,3.8c1.6,0.9,3.8,1.4,6.7,1.4c1.8,0,3.8-0.2,6-0.7l-1.1-7.3
		C348.2,99.7,347.1,99.8,346.1,99.8z"/>
	<path d="M386.5,81c-2.2-1-6.2-2.2-11.8-3.8c-3.9-1.1-6.2-1.8-7-2.1c-1.4-0.6-2.5-1.3-3.1-2.2c-0.7-0.9-1-1.8-1-2.9
		c0-1.7,0.7-3.1,2.3-4.4c1.5-1.3,4.1-1.9,7.8-1.9c3.1,0,5.5,0.7,7.2,2.1s2.7,3.4,3.1,5.9l7.8-1.1c-0.5-3.2-1.4-5.7-2.7-7.6
		c-1.4-1.9-3.4-3.4-6.2-4.5c-2.8-1.1-6-1.7-9.7-1.7c-2.5,0-4.8,0.3-6.9,1c-2.2,0.6-3.9,1.4-5.1,2.4c-1.6,1.2-2.9,2.7-3.9,4.6
		c-0.9,1.9-1.4,3.9-1.4,6.1c0,2.4,0.5,4.6,1.7,6.6c1.1,2,2.8,3.6,5.1,4.7c2.2,1.1,6.3,2.5,12.1,4c4.3,1.1,7,2.1,8.1,2.8
		c1.5,1.1,2.3,2.5,2.3,4.4c0,2.1-0.9,3.9-2.7,5.5c-1.7,1.5-4.4,2.3-8.1,2.3s-6.5-0.8-8.5-2.6s-3.3-4.3-3.7-7.6l-7.9,1.3
		c0.9,5.2,2.9,9.1,6.5,11.7c3.1,2.7,7.8,4,13.9,4c3.7,0,7-0.7,9.9-2c2.9-1.4,5.2-3.3,6.7-5.7c1.5-2.4,2.3-5,2.3-7.8
		s-0.6-5.2-1.9-7.1C390.5,83.5,388.7,82,386.5,81z"/>
	<path d="M416.5,99.8c-1.2,0-2.1-0.2-2.7-0.6c-0.7-0.4-1.1-0.9-1.4-1.6c-0.3-0.7-0.4-2.2-0.4-4.6V64.5h8V58h-8V40.9l-7.9,5V58h-5.8
		v6.3h5.8v28.2c0,5,0.4,8.2,1,9.8c0.7,1.6,1.8,2.8,3.4,3.8c1.6,0.9,3.8,1.4,6.7,1.4c1.8,0,3.8-0.2,6-0.7l-1.1-7.3
		C418.7,99.7,417.5,99.8,416.5,99.8z"/>
	<path d="M440.1,58.5c-1.6,1.1-3.3,3.4-5.1,6.9V58h-7.2v48.8h8.1V81.2c0-3.5,0.4-6.8,1.3-9.7c0.6-1.9,1.6-3.4,3-4.5
		c1.4-1.1,3-1.6,4.7-1.6c1.9,0,3.9,0.6,5.8,1.8l2.7-7.7c-2.8-1.8-5.5-2.7-8.2-2.7C443.3,56.8,441.6,57.4,440.1,58.5z"/>
	<path d="M495.9,86.6V75.5c0-3.7-0.1-6.3-0.4-7.7c-0.5-2.2-1.3-4.1-2.5-5.6s-3-2.7-5.5-3.7s-5.8-1.5-9.8-1.5
		c-4.1,0-7.6,0.5-10.7,1.7c-3,1.1-5.4,2.8-7,4.9c-1.6,2.1-2.8,4.9-3.5,8.4l7.8,1.1c0.9-3.5,2.2-5.9,4-7.3c1.8-1.4,4.6-2.1,8.3-2.1
		c4,0,7.1,0.9,9.1,2.8c1.5,1.3,2.3,3.7,2.3,7.1c0,0.3,0,1.1,0,2.2c-3,1.1-7.8,2.1-14.2,2.9c-3.2,0.4-5.5,0.8-7.1,1.2
		c-2.1,0.6-4,1.5-5.7,2.7s-3.1,2.8-4.1,4.8c-1.1,2-1.6,4.2-1.6,6.6c0,4.1,1.4,7.5,4.2,10.1c2.8,2.6,6.7,3.9,11.9,3.9
		c3.1,0,6.1-0.5,8.8-1.6c2.7-1,5.6-2.9,8.5-5.5c0.2,2.3,0.7,4.3,1.4,6.2h8.3c-1-1.9-1.7-3.9-2-5.9S495.9,94.3,495.9,86.6z
		 M488.2,85.3c0,3.7-0.4,6.4-1.3,8.3c-1.2,2.4-2.9,4.3-5.3,5.7c-2.4,1.4-5.1,2.1-8.2,2.1c-3.1,0-5.5-0.7-7.1-2.2
		c-1.6-1.4-2.4-3.3-2.4-5.5c0-1.4,0.4-2.7,1.1-3.9s1.7-2.1,3.1-2.7c1.3-0.7,3.6-1.2,6.9-1.7c5.8-0.8,10.1-1.9,13-3.1h0.2V85.3z"/>
	<path d="M546.8,69.2c-1.5-3.9-3.8-6.9-6.9-9.1c-3.1-2.1-6.6-3.2-10.6-3.2c-3,0-5.6,0.7-7.8,1.9c-2.2,1.2-4.1,3.1-5.8,5.6V58h-7.3
		v67.6h7.9v-23.8c1.4,1.8,3.1,3.2,5.2,4.4c2.1,1.2,4.4,1.8,7.1,1.8c3.7,0,7.1-1.1,10.4-3.2c3.3-2.1,5.8-5.2,7.5-9.2
		s2.6-8.5,2.6-13.5C549.1,77.4,548.4,73.1,546.8,69.2z M537.3,96.5c-2.5,3.1-5.6,4.7-9.1,4.7s-6.5-1.5-8.9-4.5
		c-2.5-3-3.7-7.7-3.7-14s1.3-11.1,4-14.4c2.6-3.3,5.6-5,9-5c3.4,0,6.3,1.6,8.8,4.7s3.7,7.8,3.7,14C541.1,88.5,539.8,93.4,537.3,96.5
		z"/>
</g>
</svg>
