<?xml version="1.0" encoding="utf-8"?>
<!-- Generator: Adobe Illustrator 25.4.1, SVG Export Plug-In . SVG Version: 6.00 Build 0)  -->
<svg version="1.1"
	 id="svg3476" xmlns:cc="http://creativecommons.org/ns#" xmlns:dc="http://purl.org/dc/elements/1.1/" xmlns:inkscape="http://www.inkscape.org/namespaces/inkscape" xmlns:rdf="http://www.w3.org/1999/02/22-rdf-syntax-ns#" xmlns:sodipodi="http://sodipodi.sourceforge.net/DTD/sodipodi-0.dtd" xmlns:svg="http://www.w3.org/2000/svg"
	 xmlns="http://www.w3.org/2000/svg" xmlns:xlink="http://www.w3.org/1999/xlink" x="0px" y="0px" viewBox="0 0 130 150"
	 style="enable-background:new 0 0 130 150;" xml:space="preserve">
<style type="text/css">
	.st0{fill:#264DE4;}
	.st1{fill:#2965F1;}
	.st2{fill:#EBEBEB;}
	.st3{fill:#FFFFFF;}
</style>
<sodipodi:namedview  bordercolor="#666666" borderopacity="1.0" fit-margin-bottom="0" fit-margin-left="0" fit-margin-right="0" fit-margin-top="0" id="base" inkscape:current-layer="layer1" inkscape:cx="37.811232" inkscape:cy="51.471985" inkscape:document-units="px" inkscape:pageopacity="0.0" inkscape:pageshadow="2" inkscape:window-height="1016" inkscape:window-maximized="1" inkscape:window-width="1850" inkscape:window-x="70" inkscape:window-y="27" inkscape:zoom="6.0991803" pagecolor="#ffffff" showgrid="false" units="px">
	</sodipodi:namedview>
<g id="layer1" transform="translate(-193.633,-732.11218)" inkscape:groupmode="layer" inkscape:label="Calque 1">
	<g id="g3013" transform="translate(119,276.3622)">
		<polygon id="polygon2989" class="st0" points="203.8,456.4 192.1,590 139.2,604.9 86.4,590.1 74.6,456.4 		"/>
		<polygon id="polygon2991" class="st1" points="182,581.5 192,467.3 139.2,467.3 139.2,593.5 		"/>
		<polygon id="polygon2993" class="st2" points="101.6,516.9 103,533.3 139.2,533.3 139.2,516.9 		"/>
		<polygon id="polygon2995" class="st2" points="139.2,483.7 139.2,483.7 98.7,483.7 100.1,500.1 139.2,500.1 		"/>
		<polygon id="polygon2997" class="st2" points="139.2,576.5 139.2,559.5 139.2,559.5 121.2,554.6 120,541.5 111.2,541.5 
			103.8,541.5 106,567.2 139.2,576.5 		"/>
		<polygon id="polygon3005" class="st3" points="159.1,533.3 157.2,554.6 139.2,559.5 139.2,576.5 172.3,567.2 172.6,564.5 
			176.4,521.3 176.8,516.9 179.7,483.7 139.2,483.7 139.2,500.1 162,500.1 160.5,516.9 139.2,516.9 139.2,533.3 		"/>
	</g>
</g>
</svg>
