<?xml version="1.0" encoding="utf-8"?>
<!-- Generator: Adobe Illustrator 25.4.1, SVG Export Plug-In . SVG Version: 6.00 Build 0)  -->
<svg version="1.1" id="Layer_1" xmlns="http://www.w3.org/2000/svg" xmlns:xlink="http://www.w3.org/1999/xlink" x="0px" y="0px"
	 viewBox="0 0 361 150" style="enable-background:new 0 0 361 150;" xml:space="preserve">
<path d="M240.9,53.1c2.5,3.1,5.1,7.5,5.1,13.7c0,15-12.1,23.9-29.5,23.9c-4.4,0-8.5-0.5-10.9-1.2l-4.6,7.2l13.6,0.8
	c24,1.5,38.1,2.2,38.1,20.2c0,15.6-14,24.4-38.1,24.4c-25.1,0-34.6-6.2-34.6-16.9c0-6.1,2.8-9.3,7.6-13.8c-4.6-1.9-6.1-5.3-6.1-8.9
	c0-3,1.5-5.7,4-8.3c2.5-2.6,5.3-5.2,8.6-8.1c-6.8-3.3-11.9-10.3-11.9-20.3c0-15.6,10.5-26.3,31.7-26.3c6,0,9.6,0.5,12.8,1.4h27v11.5
	L240.9,53.1z M199.9,114.9c-1.8,2.2-3.6,4.5-3.6,7.2c0,5.4,7.1,7,16.8,7c8,0,19-0.6,19-7.9c0-4.3-5.3-4.6-11.9-5L199.9,114.9z
	 M215.1,52.7c-7.6,0-13.3,3.7-13.3,12.5c0,6.6,3.7,11.2,12.9,11.2c7.8,0,13-4.5,13-11.5C227.8,56.9,223,52.7,215.1,52.7z"/>
<path d="M260.2,109.9V99.2l7.1-0.9c1.9-0.3,2.2-0.7,2.2-2.7V55.7c0-1.5-0.4-2.4-1.8-2.8l-7.5-2.6l1.5-11h28.7v56.2
	c0,2.2,0.1,2.4,2.2,2.7l7.1,0.9v10.7h-39.5V109.9z M278,28.4c-7.9,0-12.5-4.5-12.5-12.2S270.1,4.3,278,4.3c8,0,12.6,4.2,12.6,11.9
	C290.7,24,286.1,28.4,278,28.4z"/>
<path d="M354.5,104.6c-6,2.8-14.7,5.4-22.6,5.4c-16.5,0-22.7-6.5-22.7-21.8V52.7c0-0.8,0-1.4-1.1-1.4h-9.7v-12
	c12.2-1.4,17-7.3,18.6-22.1h13.2v19.3c0,0.9,0,1.4,1.1,1.4h19.5v13.6h-20.6v32.4c0,8,1.9,11.1,9.4,11.1c3.9,0,7.9-0.9,11.2-2.2
	L354.5,104.6z"/>
<g>
	<path d="M152.1,68.5L85.3,3.2c-3.8-3.8-10.1-3.8-13.9,0L57.6,16.8L75.2,34c4.1-1.4,8.7-0.4,12,2.7c3.3,3.2,4.2,7.8,2.7,11.8
		l16.9,16.5c4.1-1.4,8.8-0.5,12.1,2.7c4.5,4.4,4.5,11.7,0,16.2c-4.5,4.5-12,4.5-16.5,0c-3.5-3.4-4.3-8.3-2.5-12.4L84.2,56.1v40.7
		c1.2,0.5,2.2,1.3,3.1,2.2c4.5,4.4,4.5,11.7,0,16.2c-4.5,4.4-12,4.4-16.5,0c-4.5-4.5-4.5-11.7,0-16.2c1.2-1.1,2.4-1.9,3.8-2.5V55.4
		c-1.4-0.5-2.7-1.4-3.8-2.5c-3.5-3.4-4.3-8.3-2.5-12.5L50.8,23.4L5.1,68.2c-3.9,3.8-3.9,9.9,0,13.6l66.7,65.3
		c3.8,3.8,10.1,3.8,13.9,0l66.3-65C156,78.3,156,72.2,152.1,68.5z"/>
</g>
</svg>
