<?xml version="1.0" encoding="utf-8"?>
<!-- Generator: Adobe Illustrator 25.4.1, SVG Export Plug-In . SVG Version: 6.00 Build 0)  -->
<svg version="1.1" id="Layer_1" xmlns="http://www.w3.org/2000/svg" xmlns:xlink="http://www.w3.org/1999/xlink" x="0px" y="0px"
	 viewBox="0 0 187 150" style="enable-background:new 0 0 187 150;" xml:space="preserve">
<style type="text/css">
	.st0{fill:url(#SVGID_1_);}
	.st1{fill:url(#SVGID_00000002384998769478783950000010698917039205129899_);stroke:#FFFFFF;}
</style>
<linearGradient id="SVGID_1_" gradientUnits="userSpaceOnUse" x1="18.8269" y1="135.7731" x2="182.216" y2="6.0748" gradientTransform="matrix(1 0 0 -1 0 152)">
	<stop  offset="0" style="stop-color:#9013FE"/>
	<stop  offset="1" style="stop-color:#6610F2"/>
</linearGradient>
<path class="st0" d="M20.6,20.5C20.3,10.3,28.2,1,38.8,1h109.3c10.7,0,18.6,9.3,18.2,19.5c-0.3,9.7,0.1,22.3,3.3,32.6
	c3.2,10.3,8.5,16.8,17.3,17.7v9.5c-8.8,0.8-14.2,7.4-17.3,17.7c-3.2,10.3-3.6,22.9-3.3,32.6c0.4,10.1-7.5,19.5-18.2,19.5H38.8
	c-10.7,0-18.6-9.3-18.2-19.5c0.3-9.7-0.1-22.3-3.3-32.6C14.2,87.6,8.8,81.1,0,80.2v-9.5c8.8-0.8,14.2-7.4,17.4-17.7
	C20.5,42.8,21,30.2,20.6,20.5z"/>
<linearGradient id="SVGID_00000142885201013109449280000007558360653573904565_" gradientUnits="userSpaceOnUse" x1="69.0758" y1="109.9817" x2="105.5976" y2="48.2153" gradientTransform="matrix(1 0 0 -1 0 152)">
	<stop  offset="0" style="stop-color:#FFFFFF"/>
	<stop  offset="1" style="stop-color:#F1E5FC"/>
</linearGradient>
<path style="fill:url(#SVGID_00000142885201013109449280000007558360653573904565_);stroke:#FFFFFF;" d="M97.5,115.1
	c17.3,0,27.7-8.5,27.7-22.4c0-10.5-7.4-18.2-18.5-19.4v-0.4c8.1-1.3,14.5-8.8,14.5-17.2c0-12-9.5-19.8-23.9-19.8H65v79.2H97.5z
	 M77.6,45.9h16.8c9.1,0,14.3,4.1,14.3,11.4c0,7.9-6,12.2-16.9,12.2H77.6C77.6,69.6,77.6,45.9,77.6,45.9z M77.6,105.1V79h16.7
	c11.9,0,18.1,4.4,18.1,13c0,8.6-6,13.1-17.4,13.1H77.6z"/>
</svg>
