<?xml version="1.0" encoding="utf-8"?>
<!-- Generator: Adobe Illustrator 25.4.1, SVG Export Plug-In . SVG Version: 6.00 Build 0)  -->
<svg version="1.1" id="Layer_1" xmlns="http://www.w3.org/2000/svg" xmlns:xlink="http://www.w3.org/1999/xlink" x="0px" y="0px"
	 viewBox="0 0 204.3 150" style="enable-background:new 0 0 204.3 150;" xml:space="preserve">
<style type="text/css">
	.st0{fill:#00B7D6;}
</style>
<g>
	<path class="st0" d="M55.7,53.8c6.3-29,21.8-43.3,46.2-43.3c37.2,0,41.9,32.2,60.6,37.7c12.2,3.6,23.4-1.8,32.4-16
		c-6.3,28.9-21.7,43.2-46.2,43.2c-37.2,0-41.9-32.2-60.6-37.7C76,34.1,65.3,39.7,55.7,53.8L55.7,53.8z M9.5,118.8
		c6.3-29.1,21.8-43.3,46.2-43.3c37.2,0,41.9,32.2,60.6,37.7c12.2,3.6,23.4-1.8,32.4-16c-6.3,29-21.8,43.3-46.2,43.3
		c-37.2,0-41.9-32.2-60.6-37.7C29.7,99.1,18.5,104.5,9.5,118.8z"/>
</g>
</svg>
