<?xml version="1.0" encoding="utf-8"?>
<!-- Generator: Adobe Illustrator 25.4.1, SVG Export Plug-In . SVG Version: 6.00 Build 0)  -->
<svg version="1.1" id="Layer_1" xmlns="http://www.w3.org/2000/svg" xmlns:xlink="http://www.w3.org/1999/xlink" x="0px" y="0px"
	 viewBox="0 0 162 150" style="enable-background:new 0 0 162 150;" xml:space="preserve">
<style type="text/css">
	.st0{fill:#EFD81E;}
</style>
<rect x="0.1" y="0.6" class="st0" width="161.9" height="148.8"/>
<path d="M94.4,117.2c0,15-8.8,21.9-21.7,21.9c-11.6,0-18.4-6.1-21.8-13.3l11.8-7.1c2.2,4,4.4,7.4,9.4,7.4c4.8,0,7.8-1.9,7.8-9.1
	V67.7h14.5L94.4,117.2L94.4,117.2z"/>
<path d="M128.7,139.1c-13.5,0-22.2-6.4-26.5-14.9l11.8-6.8c3.1,5.1,7.1,8.8,14.4,8.8c6.1,0,9.9-3,9.9-7.1c0-5-3.9-6.7-10.5-9.7
	l-3.6-1.6c-10.4-4.5-17.4-10.1-17.4-21.9c0-10.8,8.3-19.1,21.3-19.1c9.2,0,15.8,3.2,20.6,11.6l-11.3,7.2c-2.4-4.5-5.2-6.2-9.4-6.2
	c-4.3,0-6.9,2.7-6.9,6.2c0,4.4,2.7,6.2,8.9,8.8l3.6,1.6c12.3,5.3,19.2,10.6,19.2,22.7C152.8,132,142.4,139.1,128.7,139.1z"/>
</svg>
