<?xml version="1.0" encoding="utf-8"?>
<!-- Generator: Adobe Illustrator 25.4.1, SVG Export Plug-In . SVG Version: 6.00 Build 0)  -->
<svg version="1.1" id="Layer_1" xmlns="http://www.w3.org/2000/svg" xmlns:xlink="http://www.w3.org/1999/xlink" x="0px" y="0px"
	 viewBox="0 0 157.3 150" style="enable-background:new 0 0 157.3 150;" xml:space="preserve">

<path  d="M78.6,0C36.1,0,1.7,34.4,1.7,76.9c0,34,22,62.8,52.6,73c3.8,0.7,5.3-1.6,5.3-3.7c0-1.8-0.1-7.9-0.1-14.3
	c-19.3,3.6-24.3-4.7-25.9-9c-0.9-2.2-4.6-9-7.9-10.9c-2.7-1.4-6.5-5-0.1-5.1c6.1-0.1,10.4,5.6,11.8,7.9c6.9,11.6,18,8.4,22.4,6.3
	c0.7-5,2.7-8.4,4.9-10.3c-17.1-1.9-35-8.6-35-38c0-8.4,3-15.3,7.9-20.7c-0.8-1.9-3.5-9.8,0.8-20.4c0,0,6.4-2,21.1,7.9
	c6.2-1.7,12.7-2.6,19.2-2.6S91.8,38,98,39.7c14.7-10,21.1-7.9,21.1-7.9c4.2,10.6,1.5,18.5,0.8,20.4c4.9,5.4,7.9,12.2,7.9,20.7
	c0,29.5-18,36-35.1,38c2.8,2.4,5.2,7,5.2,14.2c0,10.3-0.1,18.6-0.1,21.1c0,2,1.4,4.4,5.3,3.7c30.4-10.2,52.4-39,52.4-73
	C155.5,34.4,121,0,78.6,0z"/>
</svg>
