<?xml version="1.0" encoding="utf-8"?>
<!-- Generator: Adobe Illustrator 25.4.1, SVG Export Plug-In . SVG Version: 6.00 Build 0)  -->
<svg version="1.1" id="Layer_1" xmlns="http://www.w3.org/2000/svg" xmlns:xlink="http://www.w3.org/1999/xlink" x="0px" y="0px"
	 viewBox="0 0 632.1 150" style="enable-background:new 0 0 632.1 150;" xml:space="preserve">
<path d="M4.9,5V145h152.3V5H4.9z M93.6,114.7c0,14.1-8.3,20.6-20.4,20.6c-10.9,0-17.3-5.7-20.5-12.5l11.1-6.7c2.1,3.8,4.1,7,8.8,7
	c4.5,0,7.3-1.8,7.3-8.6V68.1h13.6V114.7z M125.9,135.3c-12.7,0-20.9-6-24.9-14l11.1-6.4c2.9,4.8,6.7,8.3,13.5,8.3
	c5.7,0,9.3-2.8,9.3-6.7c0-4.7-3.7-6.3-9.9-9.1l-3.4-1.5c-9.8-4.2-16.4-9.5-16.4-20.6c0-10.2,7.8-18,20-18c8.7,0,14.9,3,19.4,10.9
	l-10.6,6.8c-2.3-4.2-4.9-5.8-8.8-5.8c-4,0-6.5,2.5-6.5,5.8c0,4.1,2.5,5.8,8.4,8.3l3.4,1.5c11.6,5,18.1,10,18.1,21.4
	C148.5,128.6,138.8,135.3,125.9,135.3z"/>
<g>
	<path d="M190.9,97.5l11.2-6.8c2.2,3.8,4.1,7.1,8.9,7.1c4.5,0,7.4-1.8,7.4-8.7V42.3h13.8v47c0,14.3-8.4,20.8-20.6,20.8
		C200.5,110.1,194.2,104.4,190.9,97.5z"/>
	<path d="M259.8,77.3c-5,0-7.7,2.2-9.5,3.8l-7.4-7.9c3.9-3.8,8.4-6.9,18.2-6.9c10.7,0,18.9,5.8,18.9,19v23.8h-13.2l0.3-5.8
		c-3.1,4.8-6.8,6.7-12.4,6.7c-7.7,0-14.8-3.4-14.8-13.2c0-8.9,6.8-12.6,17.1-12.6h9.7C266.6,79.5,264.3,77.3,259.8,77.3z
		 M257.8,92.2c-3.3,0-4.8,1.5-4.8,3.8s2,3.7,5.7,3.7c5.4,0,8.2-2.4,8.2-5.9v-1.7H257.8z"/>
	<path d="M283.8,67.3h14.7l5.9,12.5c2,4.2,3.4,11.1,3.4,11.1s1.4-6.9,3.2-11.1l5.7-12.5h13.5l-22.4,42.8h-1.3L283.8,67.3z"/>
	<path d="M351.6,77.3c-5,0-7.7,2.2-9.5,3.8l-7.4-7.9c3.9-3.8,8.4-6.9,18.2-6.9c10.7,0,18.9,5.8,18.9,19v23.8h-13.2l0.3-5.8
		c-3.1,4.8-6.8,6.7-12.4,6.7c-7.7,0-14.8-3.4-14.8-13.2c0-8.9,6.8-12.6,17.1-12.6h9.7C358.4,79.5,356,77.3,351.6,77.3z M349.5,92.2
		c-3.3,0-4.8,1.5-4.8,3.8s2,3.7,5.7,3.7c5.4,0,8.2-2.4,8.2-5.9v-1.7H349.5z"/>
	<path d="M377.8,96l11.2-6.5c3,4.8,6.8,8.4,13.6,8.4c5.7,0,9.3-2.9,9.3-6.8c0-4.7-3.7-6.4-10-9.1l-3.4-1.5
		c-9.9-4.2-16.5-9.5-16.5-20.8c0-10.3,7.9-18.2,20.2-18.2c8.8,0,15,3,19.6,11L411,59.4c-2.4-4.2-4.9-5.9-8.9-5.9
		c-4,0-6.6,2.6-6.6,5.9c0,4.1,2.6,5.8,8.5,8.4l3.4,1.5c11.7,5,18.3,10.1,18.3,21.6c0,12.4-9.7,19.2-22.8,19.2
		C390.1,110.1,381.9,104,377.8,96z"/>
	<path d="M433.2,88.1c0-12.7,9.8-21.7,22.9-21.7c8.4,0,13.4,3,17.6,8.4l-9.4,7.7c-1.6-2.6-4.8-4.4-8.2-4.4c-6,0-9.3,4.2-9.3,10.1
		c0,6.1,3.3,10.4,9.3,10.4c4.2,0,6.5-2,8.5-3.9l8.9,7.9c-4.1,4.6-9,7.6-17.4,7.6C443,110.1,433.2,101,433.2,88.1z"/>
	<path d="M481.6,67.3h13.3l-0.2,7.6c3-6.9,8-8.5,12.3-8.5c2.8,0,4.8,0.8,6.5,1.7l-4.2,12.1c-1.7-0.8-3.2-1.3-5.1-1.3
		c-6,0-9.2,2.8-9.2,11.7v18.6h-13.3V67.3z"/>
	<path d="M518.9,52c0-4.8,3.9-8.3,8.5-8.3c4.5,0,8.4,3.4,8.4,8.3c0,4.9-3.8,8.4-8.4,8.4C522.8,60.3,518.9,56.9,518.9,52z
		 M520.6,67.3h13.3v41.9h-13.3V67.3z"/>
	<path d="M544.8,67.3h13.3l-0.3,6.5c2.6-4.5,7-7.4,13.5-7.4c10.1,0,18.7,8.9,18.7,21.7c0,12.9-8.8,21.9-19,21.9
		c-6.4,0-10.7-2.7-12.9-6.5V130h-13.3V67.3z M576.3,88.1c0-6.2-3.5-10-9.1-10c-5.7,0-9.4,3.8-9.4,10c0,6.6,3.7,10.3,9.4,10.3
		C572.8,98.5,576.3,94.7,576.3,88.1z"/>
	<path d="M601.6,93.5V78.3h-6.2v-11h6.2V45.5h13.2v21.8h10.7v11h-10.7v15.5c0,4.2,1.4,5.1,3.4,5.1c2.2,0,3.7-1.2,4.6-1.8l5,9.2
		c-2.1,1.7-5.6,3.8-11.7,3.8C607.7,110.3,601.6,106,601.6,93.5z"/>
</g>
</svg>
