<?xml version="1.0" encoding="utf-8"?>
<!-- Generator: Adobe Illustrator 25.4.1, SVG Export Plug-In . SVG Version: 6.00 Build 0)  -->
<svg version="1.1" id="Layer_1" xmlns="http://www.w3.org/2000/svg" xmlns:xlink="http://www.w3.org/1999/xlink" x="0px" y="0px"
	 viewBox="0 0 427.3 150" style="enable-background:new 0 0 427.3 150;" xml:space="preserve">
<g>
	<path d="M137.6,49.4c-1.8-0.4-3.5-1.1-5.3-1.8c0.4-1.1,0.4-2.5,0.7-3.5c3.9-19.3,1.4-35.1-7.4-40c-8.4-4.9-22.4,0-36.5,12.3
		c-1.4,1.1-2.8,2.5-4.2,3.9c-0.7-0.7-1.8-1.8-2.8-2.5C67.4,4.9,52.7-0.7,43.9,4.5c-8.4,4.9-11.2,19.6-7.4,37.9
		c0.4,1.8,0.7,3.5,1.1,5.6c-2.1,0.4-4.2,1.1-6,1.8C14.5,55.7,3.2,65.2,3.2,75c0,10.2,11.9,20.3,29.8,26.3c1.4,0.4,2.8,1.1,4.6,1.4
		c-0.4,1.8-0.7,3.9-1.4,6c-3.5,18.2-0.7,32.3,7.7,37.2c8.8,5.3,23.5,0,37.9-12.6c1.1-1.1,2.1-2.1,3.5-3.2c1.4,1.4,2.8,2.8,4.6,4.2
		c13.7,11.9,27.7,16.8,36.1,11.9c8.8-5.3,11.6-20.3,7.7-38.9c-0.4-1.4-0.7-2.8-1.1-4.6l3.2-1.1c18.6-6.3,30.9-16.1,30.9-26.3
		C166.7,65.2,155.1,55.7,137.6,49.4z M93.7,22.1c12.3-10.5,23.5-14.7,28.4-11.9c5.6,3.2,7.7,15.8,4.2,32.6c0,1.1-0.4,2.1-0.7,3.2
		c-7-1.8-14.4-2.8-21.7-3.5c-4.2-6-8.8-11.9-13.7-17.2C91.3,24.5,92.3,23.1,93.7,22.1z M56.2,91.8c1.8,2.8,3.5,5.6,5.3,8.4
		c-5.3-0.4-10.2-1.4-15.1-2.5c1.4-4.9,3.2-9.8,5.3-14.4C53,86.2,54.4,89,56.2,91.8z M46.4,52.9c4.9-1.1,9.8-1.8,14.7-2.5
		c-1.8,2.5-3.5,5.3-5.3,8.1c-1.4,2.8-3.2,5.6-4.6,8.4C49.5,62.4,47.8,57.8,46.4,52.9z M55.2,75c2.1-4.6,4.6-8.8,7-13
		c2.5-4.2,5.3-8.4,7.7-12.6c9.8-0.7,19.6-0.7,29.8,0c2.8,4.2,5.6,8.4,7.7,12.6c2.5,4.2,4.9,8.8,7,13c-2.1,4.6-4.6,8.8-6.7,13
		c-2.5,4.2-5.3,8.4-7.7,12.6C95.1,101,90.2,101,85,101s-10.2,0-14.7-0.4c-2.8-4.2-5.6-8.4-8.1-12.6C59.7,84.1,57.3,79.6,55.2,75z
		 M113.7,91.8c1.8-2.8,3.2-5.6,4.9-8.4c2.1,4.9,3.9,9.5,5.6,14.4c-5.3,1.1-10.2,2.1-15.1,2.5C110.6,97.5,112.3,94.7,113.7,91.8z
		 M118.3,67c-1.4-2.8-2.8-5.6-4.6-8.4c-1.4-2.8-3.2-5.6-4.9-8.1c5.3,0.7,10.2,1.4,14.7,2.5C122.1,57.5,120.4,62.4,118.3,67z
		 M85.3,30.5c3.5,3.9,6.7,7.4,9.5,11.6c-6.3-0.4-12.6-0.4-19.3,0C78.6,38.2,81.8,34.3,85.3,30.5z M47.4,10.5
		C53,7.3,65,11.9,77.9,23.1c0.7,0.7,1.8,1.4,2.5,2.1c-4.9,5.6-9.8,11.2-14,17.2c-7.4,0.7-14.7,1.8-21.7,3.5
		c-0.4-1.4-0.7-3.2-1.1-4.9C40.4,25.2,42.2,13.7,47.4,10.5z M39.7,96.4c-1.4-0.4-2.8-1.1-4.2-1.4c-7-2.1-13.3-5.6-18.9-10.2
		c-4.2-3.5-6.3-7-6.3-9.8c0-6,8.8-13.3,23.8-18.6c1.8-0.7,3.9-1.1,5.6-1.8c2.1,7,4.9,14,8.1,20.7C44.6,82,41.8,89,39.7,96.4z
		 M77.2,128.3c-5.3,4.6-11.6,8.4-18.2,11.2c-4.9,1.8-9.1,1.8-11.6,0.4c-5.3-2.8-7.4-14.4-4.6-29.8c0.4-1.8,0.7-3.5,1.1-5.6
		c7.4,1.4,14.7,2.5,22.1,3.2c4.2,6.3,9.1,11.9,14,17.5C79.4,126.2,78.3,127.3,77.2,128.3z M85.3,119.9c-3.5-3.9-6.7-7.7-9.8-11.9
		c3.2,0,6.3,0,9.5,0c3.5,0,6.7,0,9.8,0C91.6,112.2,88.8,116.4,85.3,119.9z M127.7,129.7c-1.1,5.3-2.8,8.8-5.3,10.2
		c-5.3,2.8-16.1-0.7-28.1-11.2c-1.4-1.1-2.8-2.5-4.2-3.9c4.9-5.6,9.5-11.2,13.7-17.5c7.4-0.7,14.7-1.8,22.1-3.5
		c0,1.4,0.4,2.8,0.7,4.2C128.5,115.3,128.8,122.7,127.7,129.7z M133.7,95c-0.7,0.4-1.8,0.4-2.8,0.7c-2.1-7-5.3-14-8.1-20.7
		c3.2-6.7,6-13.3,8.1-20.3c1.8,0.4,3.2,1.1,4.9,1.4c15.1,5.3,24.6,13,24.6,18.6C159.7,81.3,149.8,89.4,133.7,95z"/>
	<path d="M85,90.1c8.1,0,14.7-6.7,14.7-14.7c0-8.1-6.7-14.7-14.7-14.7S70.6,67,70.2,75.4C70.2,83.4,76.9,90.1,85,90.1z"/>
	<g>
		<path d="M180.4,108.3V38.4h28.2c7.1,0,12.2,0.6,15.5,1.9c3.2,1.3,5.8,3.5,7.7,6.7c1.9,3.2,2.9,6.9,2.9,11c0,5.2-1.5,9.6-4.4,13
			c-2.9,3.4-7.3,5.6-13.1,6.5c2.9,1.8,5.3,3.7,7.2,5.9c1.9,2.1,4.4,5.9,7.6,11.3l8.1,13.6h-16l-9.7-15.2c-3.4-5.4-5.8-8.8-7.1-10.3
			c-1.3-1.4-2.6-2.4-4-2.9c-1.4-0.5-3.7-0.8-6.7-0.8h-2.7v29.1H180.4z M193.8,68h9.9c6.4,0,10.4-0.3,12-0.9c1.6-0.6,2.9-1.6,3.8-3
			c0.9-1.4,1.4-3.1,1.4-5.2c0-2.3-0.6-4.2-1.8-5.7c-1.2-1.4-2.9-2.4-5-2.7c-1.1-0.2-4.3-0.2-9.8-0.2h-10.5V68z"/>
		<path d="M275.1,92.2l12.7,2.2c-1.6,4.9-4.2,8.6-7.7,11.2c-3.5,2.6-7.9,3.8-13.2,3.8c-8.4,0-14.5-2.9-18.6-8.6
			c-3.2-4.6-4.8-10.4-4.8-17.4c0-8.4,2.1-14.9,6.2-19.7c4.2-4.7,9.4-7.1,15.8-7.1c7.2,0,12.8,2.5,16.9,7.5c4.1,5,6.1,12.6,5.9,22.8
			h-31.9c0.1,4,1.1,7.1,3.1,9.3c2,2.2,4.4,3.3,7.3,3.3c2,0,3.7-0.6,5-1.7C273.3,96.5,274.4,94.7,275.1,92.2z M275.8,78.6
			c-0.1-3.9-1-6.8-2.9-8.8c-1.8-2-4-3-6.6-3c-2.8,0-5.1,1.1-6.9,3.2c-1.8,2.1-2.7,5-2.7,8.7H275.8z"/>
		<path d="M308.3,73.1l-11.5-2.2c1.3-4.9,3.5-8.5,6.7-10.9c3.2-2.3,7.9-3.5,14.1-3.5c5.7,0,9.9,0.7,12.7,2.1
			c2.8,1.4,4.7,3.2,5.9,5.4c1.1,2.2,1.7,6.2,1.7,12l-0.1,15.6c0,4.4,0.2,7.7,0.6,9.8c0.4,2.1,1.2,4.4,2.3,6.8H328
			c-0.3-0.9-0.7-2.2-1.2-4c-0.2-0.8-0.4-1.3-0.5-1.6c-2.2,2.2-4.5,3.9-7,5c-2.5,1.1-5.1,1.7-7.9,1.7c-4.9,0-8.8-1.4-11.7-4.2
			c-2.9-2.8-4.3-6.4-4.3-10.7c0-2.9,0.6-5.4,1.9-7.6c1.3-2.2,3.1-4,5.5-5.1c2.3-1.2,5.7-2.2,10.1-3.1c5.9-1.2,10.1-2.3,12.4-3.3
			v-1.3c0-2.6-0.6-4.4-1.8-5.5c-1.2-1.1-3.5-1.6-6.8-1.6c-2.3,0-4,0.5-5.3,1.4C310.1,69.1,309.1,70.8,308.3,73.1z M325.3,84
			c-1.6,0.6-4.2,1.3-7.7,2c-3.5,0.8-5.8,1.6-6.9,2.3c-1.7,1.2-2.5,2.8-2.5,4.7c0,1.9,0.7,3.5,2,4.9c1.3,1.4,3,2,5.1,2
			c2.3,0,4.5-0.8,6.6-2.4c1.5-1.2,2.5-2.7,3-4.4c0.3-1.1,0.5-3.3,0.5-6.5V84z"/>
		<path d="M392.2,72.6L379.7,75c-0.4-2.6-1.4-4.6-2.9-6s-3.4-2-5.8-2c-3.2,0-5.7,1.2-7.6,3.5c-1.9,2.3-2.8,6.2-2.8,11.5
			c0,6,1,10.2,2.9,12.7c1.9,2.5,4.5,3.7,7.7,3.7c2.4,0,4.4-0.7,5.9-2.2c1.5-1.4,2.6-3.9,3.3-7.5l12.5,2.2c-1.3,6-3.8,10.6-7.5,13.7
			c-3.7,3.1-8.6,4.6-14.8,4.6c-7,0-12.6-2.3-16.8-7c-4.2-4.7-6.3-11.1-6.3-19.4c0-8.3,2.1-14.8,6.3-19.5c4.2-4.6,9.9-7,17-7
			c5.9,0,10.5,1.3,14,4C388.2,63.2,390.7,67.2,392.2,72.6z"/>
		<path d="M423.9,57.7v10.7h-8.7v20.4c0,4.1,0.1,6.5,0.2,7.2c0.2,0.7,0.5,1.2,1.1,1.7c0.6,0.4,1.3,0.7,2.1,0.7
			c1.2,0,2.9-0.4,5.1-1.3l1.1,10.4c-3,1.3-6.3,2-10,2c-2.3,0-4.4-0.4-6.2-1.2c-1.8-0.8-3.2-1.9-4.1-3.1c-0.9-1.3-1.5-3-1.8-5.2
			c-0.3-1.6-0.4-4.7-0.4-9.4v-22h-5.8V57.7h5.8v-10l12.8-7.8v17.9H423.9z"/>
	</g>
</g>
</svg>
