<?xml version="1.0" encoding="utf-8"?>
<!-- Generator: Adobe Illustrator 25.4.1, SVG Export Plug-In . SVG Version: 6.00 Build 0)  -->
<svg version="1.1" id="Layer_1" xmlns="http://www.w3.org/2000/svg" xmlns:xlink="http://www.w3.org/1999/xlink" x="0px" y="0px"
	 viewBox="0 0 167.6 150" style="enable-background:new 0 0 167.6 150;" xml:space="preserve">
<style type="text/css">
	.st0{fill:#002C4B;}
	.st1{fill-rule:evenodd;clip-rule:evenodd;fill:#FFD94C;}
	.st2{fill-rule:evenodd;clip-rule:evenodd;fill:#FF4154;hover:fill:#000}
</style>
<desc>Created with Sketch.</desc>
<g>
	<g>
		<path class="st0"  d="M132.6,45.3c2.7-13.2,3.3-23.4,1.6-30.7c-1-4.4-3-8-5.9-10.5c-3.1-2.7-7-4.1-11.3-4.1
			c-7.2,0-14.8,3.3-22.9,9.5c-3.3,2.5-6.7,5.6-10.3,9.2c-0.3-0.4-0.6-0.7-1-1C72.7,8.7,64.2,3.2,56.9,1c-4.3-1.3-8.4-1.4-12.1-0.2
			c-3.9,1.3-7,4-9.2,7.8c-3.6,6.3-4.6,14.5-3.2,24.6c0.5,4.1,1.5,8.6,2.8,13.5c-0.5,0.1-1,0.2-1.5,0.3C21,51.4,12,55.9,6.5,61.1
			c-3.3,3.1-5.4,6.5-6.2,10.4c-0.8,4,0,8.1,2.2,11.8c3.6,6.2,10.2,11.2,19.7,15.1c3.8,1.6,8.1,3,12.9,4.3c-0.2,0.5-0.4,1-0.5,1.6
			c-2.7,13.2-3.3,23.4-1.6,30.7c1,4.4,3,8,5.9,10.5c3.1,2.7,7,4.1,11.3,4.1c7.2,0,14.8-3.3,22.9-9.5c3.3-2.6,6.8-5.7,10.4-9.3
			c0.4,0.6,0.8,1.1,1.4,1.6c10.1,9,18.6,14.5,25.8,16.7c4.3,1.3,8.4,1.4,12.1,0.2c3.9-1.3,7-4,9.2-7.8c3.6-6.3,4.6-14.5,3.2-24.6
			c-0.6-4.3-1.6-9-3-14.1c0.5-0.1,1.1-0.2,1.6-0.4c12.8-4.2,21.8-8.8,27.3-14c3.3-3.1,5.4-6.5,6.2-10.4c0.8-4,0-8.1-2.2-11.8
			c-3.6-6.2-10.2-11.2-19.7-15.1c-3.9-1.6-8.3-3.1-13.3-4.4C132.4,46.2,132.5,45.8,132.6,45.3z"/>
		<path  class="st1" d="M70.9,47.6h25.8c1.6,0,3,0.8,3.8,2.2l12.9,22.5c0.8,1.4,0.8,3,0,4.4l-12.9,22.5c-0.8,1.4-2.2,2.2-3.8,2.2
			H70.9c-1.6,0-3-0.8-3.8-2.2L54.2,76.8c-0.8-1.4-0.8-3,0-4.4l12.9-22.5C67.9,48.5,69.4,47.6,70.9,47.6z M93.5,53.2
			c1.6,0,3,0.8,3.8,2.2l9.7,17c0.8,1.4,0.8,3,0,4.4l-9.7,17c-0.8,1.4-2.2,2.2-3.8,2.2H74.1c-1.6,0-3-0.8-3.8-2.2l-9.7-17
			c-0.8-1.4-0.8-3,0-4.4l9.7-17c0.8-1.4,2.2-2.2,3.8-2.2H93.5z M90.1,59.2H77.6c-1.6,0-3,0.8-3.8,2.2l0,0l-6.3,10.9
			c-0.8,1.4-0.8,3,0,4.4l0,0l6.3,10.9c0.8,1.4,2.2,2.2,3.8,2.2l0,0h12.5c1.6,0,3-0.8,3.8-2.2l0,0l6.3-10.9c0.8-1.4,0.8-3,0-4.4l0,0
			l-6.3-10.9C93.1,60.1,91.7,59.2,90.1,59.2L90.1,59.2z M86.8,65c1.6,0,3,0.8,3.8,2.2l2.9,5.1c0.8,1.4,0.8,3,0,4.4l-2.9,5.1
			c-0.8,1.4-2.2,2.2-3.8,2.2h-5.9c-1.6,0-3-0.8-3.8-2.2l-2.9-5.1c-0.8-1.4-0.8-3,0-4.4l2.9-5.1c0.8-1.4,2.2-2.2,3.8-2.2H86.8z
			 M83.8,70.8c-1.4,0-2.6,0.7-3.3,1.9c-0.7,1.2-0.7,2.6,0,3.8c0.7,1.2,1.9,1.9,3.3,1.9l0,0c1.4,0,2.6-0.7,3.3-1.9
			c0.7-1.2,0.7-2.6,0-3.8C86.4,71.5,85.2,70.8,83.8,70.8L83.8,70.8z M52.9,74.6h6.9"/>
		<path class="st2" d="M48.4,86.8c1.2-0.7,2.6-0.2,3.3,0.9l0,0l0.4,0.7c3.4,5.9,6.9,11.6,10.5,16.9c4.3,6.3,9.1,12.7,14.5,19.2
			c0.8,1,0.7,2.5-0.3,3.4l0,0l-0.5,0.5C58.5,143.9,47,147,41.7,137.7c-5.2-9.1-3.3-25.7,5.6-49.7C47.5,87.5,47.9,87.1,48.4,86.8z
			 M124,105c1.3-0.2,2.5,0.6,2.8,1.9l0,0l0.1,0.7c4.4,22.9,1.3,34.4-9.3,34.4c-10.3,0-23.5-9.8-39.4-29.4c-0.4-0.4-0.5-1-0.5-1.5
			c0-1.3,1.1-2.4,2.4-2.4l0,0l0.8,0c6.7,0,13.3-0.2,19.6-0.7C108,107.5,115.8,106.5,124,105z M130.1,56.3c0.5-1.2,1.9-1.9,3.1-1.5
			l0,0l0.7,0.2c22.8,7.8,31.5,16.3,26,25.6c-5.4,9.1-20.9,15.7-46.7,19.9c-0.6,0.1-1.2,0-1.7-0.3c-1.2-0.7-1.6-2.2-0.9-3.3l0,0
			l0.4-0.7c3.5-5.9,6.7-11.8,9.5-17.6C124,71.6,127.1,64.2,130.1,56.3z M54.5,49.4c0.6-0.1,1.2,0,1.7,0.3c1.2,0.7,1.6,2.2,0.9,3.3
			l0,0l-0.4,0.7C53,59.7,49.9,65.6,47,71.4c-3.4,6.9-6.5,14.3-9.4,22.2c-0.5,1.2-1.9,1.9-3.1,1.5l0,0l-0.7-0.2
			C11,87.2,2.3,78.6,7.8,69.3C13.1,60.2,28.7,53.6,54.5,49.4z M91.4,21.6C109.1,6.1,120.6,3,126,12.3c5.2,9.1,3.3,25.7-5.6,49.7
			c-0.2,0.5-0.6,1-1.1,1.3c-1.2,0.7-2.6,0.2-3.3-0.9l0,0l-0.4-0.7c-3.4-5.9-6.9-11.6-10.5-16.9c-4.3-6.3-9.1-12.7-14.5-19.2
			c-0.8-1-0.7-2.5,0.3-3.4l0,0L91.4,21.6z M50.9,7.1c10.3,0,23.5,9.8,39.4,29.4c0.4,0.4,0.5,1,0.5,1.5c0,1.3-1.1,2.4-2.4,2.4l0,0
			l-0.8,0c-6.7,0-13.3,0.2-19.6,0.7c-7.5,0.6-15.3,1.6-23.5,3.1c-1.3,0.2-2.5-0.6-2.8-1.9l0,0l-0.1-0.7C37.3,18.5,40.3,7.1,50.9,7.1
			z"/>
	</g>
</g>
</svg>
