<?xml version="1.0" encoding="utf-8"?>
<!-- Generator: Adobe Illustrator 25.4.1, SVG Export Plug-In . SVG Version: 6.00 Build 0)  -->
<svg version="1.1" id="Layer_1" xmlns="http://www.w3.org/2000/svg" xmlns:xlink="http://www.w3.org/1999/xlink" x="0px" y="0px"
	 viewBox="0 0 573.9 150" style="enable-background:new 0 0 573.9 150;" xml:space="preserve">
<path d="M364.9,27.3h82.4v15.2h-32.7v80h-16.3v-80h-33.4V27.3z"/>
<path d="M229.4,27.3v15.2h-66V67h53.1v15.2h-53.1v25.1h66v15.2H147v-80h0V27.3H229.4z"/>
<path d="M270.5,27.3h-21.4l76.6,95.2h21.4L308.9,75l38.2-47.6l-21.4,0l-27.6,34.2L270.5,27.3z"/>
<path d="M292.5,95.3L281.7,82l-32.7,40.6h21.4L292.5,95.3z"/>
<path d="M147.6,122.5L70.9,27.3H50.4v95.2h16.3V47.6l60.3,74.9H147.6z"/>
<path d="M450.9,121.9c-1.2,0-2.2-0.4-3.1-1.2c-0.9-0.8-1.3-1.8-1.3-3c0-1.2,0.4-2.1,1.3-3c0.9-0.8,1.9-1.2,3.1-1.2
	c1.2,0,2.2,0.4,3,1.2c0.9,0.8,1.3,1.8,1.3,3c0,0.8-0.2,1.5-0.6,2.1c-0.4,0.7-0.9,1.2-1.6,1.5C452.4,121.7,451.7,121.9,450.9,121.9z"
	/>
<path d="M478.8,81.8h7.2v27.9c0,2.6-0.6,4.8-1.6,6.6c-1.1,1.8-2.6,3.3-4.6,4.2c-1.9,1-4.2,1.5-6.8,1.5c-2.4,0-4.5-0.4-6.4-1.3
	c-1.9-0.8-3.4-2.1-4.5-3.7c-1.1-1.6-1.7-3.7-1.7-6.1h7.3c0,1.1,0.3,2,0.7,2.8c0.5,0.8,1.1,1.4,1.9,1.8c0.8,0.4,1.8,0.6,2.9,0.6
	c1.2,0,2.2-0.2,3-0.7c0.8-0.5,1.4-1.2,1.9-2.2c0.4-0.9,0.6-2.1,0.7-3.5V81.8z"/>
<path d="M515.9,92.7c-0.2-1.7-1-3-2.3-3.9c-1.4-0.9-3.1-1.4-5.3-1.4c-1.5,0-2.8,0.2-3.9,0.7c-1.1,0.5-1.9,1.1-2.5,1.8
	c-0.6,0.8-0.9,1.7-0.9,2.7c0,0.8,0.2,1.5,0.6,2.1c0.4,0.6,0.9,1.1,1.6,1.5c0.7,0.4,1.4,0.8,2.2,1.1c0.8,0.3,1.6,0.5,2.5,0.7l3.8,0.9
	c1.5,0.3,3,0.8,4.4,1.4c1.4,0.6,2.7,1.3,3.8,2.2c1.1,0.9,2,2,2.7,3.3c0.7,1.3,1,2.8,1,4.5c0,2.3-0.6,4.4-1.8,6.1
	c-1.2,1.8-2.9,3.1-5.2,4.1c-2.3,1-5,1.5-8.2,1.5c-3.1,0-5.8-0.5-8.1-1.4c-2.3-0.9-4.1-2.3-5.4-4.2c-1.3-1.8-2-4.1-2.1-6.7h7.2
	c0.1,1.4,0.5,2.5,1.3,3.4c0.8,0.9,1.8,1.6,3,2.1c1.2,0.4,2.6,0.7,4.1,0.7c1.6,0,3-0.2,4.2-0.7c1.2-0.5,2.1-1.1,2.8-2
	c0.7-0.8,1-1.8,1-3c0-1-0.3-1.9-0.9-2.6c-0.6-0.7-1.5-1.2-2.5-1.7c-1.1-0.5-2.3-0.9-3.8-1.2l-4.6-1.2c-3.3-0.8-5.9-2.1-7.9-3.8
	c-1.9-1.7-2.9-4-2.9-6.8c0-2.3,0.6-4.4,1.9-6.1c1.3-1.8,3-3.1,5.3-4.1c2.2-1,4.8-1.5,7.6-1.5c2.9,0,5.4,0.5,7.5,1.5
	c2.2,1,3.9,2.3,5.1,4c1.2,1.7,1.9,3.7,1.9,5.9H515.9z"/>
</svg>
