<?xml version="1.0" encoding="utf-8"?>
<!-- Generator: Adobe Illustrator 25.4.1, SVG Export Plug-In . SVG Version: 6.00 Build 0)  -->
<svg version="1.1" id="Layer_1" xmlns="http://www.w3.org/2000/svg" xmlns:xlink="http://www.w3.org/1999/xlink" x="0px" y="0px"
	 viewBox="0 0 156.7 150" style="enable-background:new 0 0 156.7 150;" xml:space="preserve">
<style type="text/css">
	.st0{fill:#7248B6;}
</style>
<g>
	<path class="st0" d="M107.5,104c5.6-0.6,9.8-5.4,9.6-11.1c-0.2-5.8-5-10.4-10.8-10.4H106c-6,0.2-10.6,5.2-10.4,11.1
		c0.2,2.9,1.3,5.4,3.1,7.1c-6.5,12.9-16.5,22.3-31.5,30.1c-10.2,5.4-20.7,7.3-31.3,6c-8.6-1.2-15.4-5-19.6-11.3
		c-6.1-9.4-6.7-19.6-1.5-29.8c3.6-7.3,9.4-12.7,13.1-15.4c-0.8-2.5-1.9-6.7-2.5-9.8C-2.5,90.8,0.4,118,8.9,130.9
		c6.3,9.6,19.2,15.6,33.4,15.6c3.8,0,7.7-0.4,11.5-1.3C78.4,140.3,97,125.7,107.5,104z"/>
	<path class="st0" d="M141.3,80.2c-14.6-17.1-36.1-26.5-60.7-26.5h-3.1c-1.7-3.5-5.4-5.8-9.4-5.8h-0.4c-6,0.2-10.6,5.2-10.4,11.1
		c0.2,5.8,5,10.4,10.8,10.4h0.4c4.2-0.2,7.9-2.9,9.4-6.5h3.5c14.6,0,28.4,4.2,40.9,12.5c9.6,6.3,16.5,14.6,20.4,24.6
		c3.3,8.1,3.1,15.9-0.4,22.7c-5.4,10.2-14.4,15.7-26.3,15.7c-7.7,0-15-2.3-18.8-4c-2.1,1.9-6,5-8.6,6.9c8.3,3.8,16.7,6,24.8,6
		c18.4,0,32.1-10.2,37.2-20.4C156.1,115.7,155.7,96.5,141.3,80.2z"/>
	<path class="st0" d="M43.8,107.3c0.2,5.8,5,10.4,10.8,10.4H55c6-0.2,10.6-5.2,10.4-11.1c-0.2-5.8-5-10.4-10.8-10.4h-0.4
		c-0.4,0-1,0-1.3,0.2c-7.9-13.1-11.1-27.3-10-42.6c0.8-11.5,4.6-21.5,11.3-29.8c5.6-7.1,16.3-10.6,23.6-10.8
		c20.4-0.4,29,25,29.6,35.1c2.5,0.6,6.7,1.9,9.6,2.9C114.7,20.1,95.5,4,77,4C59.7,4,43.8,16.5,37.5,34.9
		c-8.8,24.6-3.1,48.2,7.7,66.8C44.2,103.1,43.6,105.2,43.8,107.3z"/>
</g>
</svg>
