<?xml version="1.0" encoding="utf-8"?>
<!-- Generator: Adobe Illustrator 25.4.1, SVG Export Plug-In . SVG Version: 6.00 Build 0)  -->
<svg version="1.1" id="Layer_1" xmlns="http://www.w3.org/2000/svg" xmlns:xlink="http://www.w3.org/1999/xlink" x="0px" y="0px"
	 viewBox="0 0 502.5 150" style="enable-background:new 0 0 502.5 150;" xml:space="preserve">
<style type="text/css">
	.st0{fill:none;}
</style>
<rect x="129.3" y="-1.8" class="st0" width="393.8" height="145.1"/>
<path d="M156.1,31.1h26.4v26.2h24.4V31.1h26.4v79.3h-26.4V84h-24.1v26.4h-26.7 M268.3,57.6H245V31.1h73.2v26.4h-23.5v52.9h-26.4
	 M329.8,31.1h27.7l17,27.9l17-27.9h27.7v79.3h-26.4V71.1l-18.5,28.5l-18.5-28.5v39.3h-26 M432.4,31.1h26.4v53.1h37.5v26.2h-63.9"/>
<g>
	<g>
		<path d="M2.8,3.9l11.5,129.2l51.6,14.6l51.9-14.6L129.3,3.9H2.8z M104.4,46H43.8l1.3,16.3H103l-4.5,48.9L66.3,120v0.1h-0.4
			l-32.5-9l-2-25h15.7l1.2,12.6l17.6,4.8l17.7-4.8l2-20.5h-55l-4.2-48h79.4L104.4,46z"/>
	</g>
</g>
</svg>
