<?xml version="1.0" encoding="utf-8"?>
<!-- Generator: Adobe Illustrator 25.4.1, SVG Export Plug-In . SVG Version: 6.00 Build 0)  -->
<svg version="1.1"
	 id="Layer_1" xmlns:cc="http://creativecommons.org/ns#" xmlns:dc="http://purl.org/dc/elements/1.1/" xmlns:rdf="http://www.w3.org/1999/02/22-rdf-syntax-ns#"
	 xmlns="http://www.w3.org/2000/svg" xmlns:xlink="http://www.w3.org/1999/xlink" x="0px" y="0px" viewBox="0 0 642.9 150"
	 style="enable-background:new 0 0 642.9 150;" xml:space="preserve">
<path d="M139.9,3.2H19.2c-8.1,0-14.6,6.3-14.6,14v115.1c0,7.7,6.6,14,14.6,14h120.7c8.1,0,14.6-6.3,14.6-14V17.1
	C154.6,9.4,148,3.2,139.9,3.2z M91.6,83.2H72.9v53.6h-15V83.2H39.2v-12h52.4C91.6,71.2,91.6,83.2,91.6,83.2z M139.9,127.2
	c-1.2,2.6-3.2,4.6-5.6,6.2c-2.3,1.4-5,2.5-8.2,3.2s-6.4,1-10,1s-7-0.3-10.3-0.9s-6.1-1.5-8.5-2.8v-14.1c-0.2-0.1-0.4-0.3-0.6-0.4
	l0.6-0.1v0.6c2.5,2,5.2,3.5,8.2,4.6c2.9,1.1,6.2,1.7,9.4,1.7c2.1,0,3.6-0.2,5-0.5c1.4-0.4,2.6-0.8,3.5-1.4s1.6-1.3,2.1-2.1
	s0.7-1.7,0.7-2.6c0-1.3-0.4-2.5-1.1-3.5s-1.7-1.9-2.9-2.8c-1.2-0.8-2.6-1.7-4.4-2.5s-3.5-1.6-5.6-2.4c-5-2.3-8.9-4.7-11.4-7.9
	c-2.5-2.9-3.8-6.7-3.8-11.1c0-3.5,0.7-6.3,2.1-8.8c1.5-2.6,3.2-4.6,5.6-6.2c2.3-1.6,5-2.8,8.2-3.5s6.4-1.1,10-1.1s6.4,0.2,9.1,0.6
	s5.1,1.1,7.3,1.9v13.8c-1-0.8-2.2-1.4-3.5-2c-1.4-0.6-2.7-1.1-4.1-1.4s-2.8-0.7-4.1-0.8c-1.3-0.2-2.6-0.3-3.8-0.3
	c-1.8,0-3.3,0.1-4.7,0.5c-1.4,0.3-2.6,0.8-3.5,1.3s-1.7,1.3-2.2,2.1s-0.8,1.7-0.8,2.7c0,1.1,0.3,2.1,0.9,2.9s1.4,1.7,2.5,2.5
	c1,0.8,2.3,1.5,3.8,2.3c1.8,0.8,3.3,1.5,5.3,2.3c2.6,1.1,5,2.3,7,3.5s3.8,2.5,5.3,4.1c1.6,1.5,2.7,3.2,3.5,5.3s1.2,4.4,1.2,7
	C142,121.6,141.1,124.5,139.9,127.2z"/>
<g>
	<path d="M244.6,40.7h-23.2v68.4H212V40.7h-23v-8.1h55.6L244.6,40.7L244.6,40.7z M288.3,54.4l-26.4,63.4c-4.6,11.3-11.3,17-19.8,17
		c-2.4,0-4.4-0.2-5.9-0.7v-7.8c2,0.7,3.8,0.9,5.4,0.9c4.6,0,8-2.7,10.5-8l4.5-10.4l-22.3-54.5h10.2l15.5,42c0.2,0.5,0.5,1.9,1.1,4.2
		h0.3c0.2-0.8,0.5-2.2,1.1-4.1l16.2-42.2h9.6V54.4z M303.3,101.1H303v33h-9.2V54.4h9.2V64h0.3c4.5-7.2,11.2-10.9,19.8-10.9
		c7.3,0,13.2,2.4,17.3,7.2c4.1,4.8,6.2,11.5,6.2,19.6c0,9.1-2.4,16.5-7.1,21.9c-4.6,5.5-11,8.2-19.1,8.2
		C313.2,110.4,307.4,107.3,303.3,101.1L303.3,101.1z M303.1,79.2v7.6c0,4.6,1.6,8.3,4.6,11.5c3.1,3.1,6.9,4.7,11.7,4.7
		c5.5,0,9.8-2,13.2-6.1c3.1-4.1,4.6-9.7,4.6-17c0-6.1-1.4-10.9-4.4-14.3c-3-3.5-6.9-5.2-12-5.2c-5.4,0-9.6,1.7-12.8,5.2
		C304.7,69.4,303.1,73.8,303.1,79.2L303.1,79.2z M402.7,83.9h-40.4c0.2,6.1,1.8,10.8,5.1,14.1c3.2,3.3,7.8,5,13.5,5
		c6.5,0,12.5-2,17.8-6.1v8.2c-5.1,3.5-11.7,5.2-19.9,5.2c-8,0-14.4-2.4-19.1-7.4c-4.6-5-6.9-12-6.9-20.9c0-8.5,2.5-15.5,7.6-20.7
		c5.1-5.4,11.3-8.1,18.7-8.1c7.4,0,13.2,2.3,17.3,7c4.1,4.6,6.2,11.1,6.2,19.3L402.7,83.9L402.7,83.9z M393.2,76.4
		c0-5.2-1.3-9.1-3.8-11.9c-2.5-2.8-6.1-4.2-10.5-4.2c-4.4,0-8,1.5-11,4.4s-5,6.9-5.7,11.6L393.2,76.4L393.2,76.4z M407.2,106.4v-6.1
		c5.8,3.5,11.6,5.2,17.5,5.2c6.2,0,11-1.2,14.3-3.7c3.3-2.5,4.8-5.9,4.8-10.4c0-3.9-1.1-7-3.2-9.4c-2.1-2.3-6.9-5.5-14.1-9.6
		c-8.2-4.6-13.2-8.3-15.4-11.3c-2.1-3.1-3.2-6.6-3.2-10.5c0-5.4,2.3-10,6.6-13.7s10.3-5.7,17.6-5.7c4.8,0,9.6,0.8,14.3,2.3v5.5
		c-4.6-2-9.8-3.1-15.1-3.1c-5.5,0-9.8,1.3-13,3.9c-3.2,2.7-4.8,5.9-4.8,10c0,3.9,1.1,7,3.2,9.3c2.1,2.3,6.9,5.5,14.1,9.4
		c7.5,4.1,12.5,7.6,15,10.8c2.5,3.1,3.7,6.7,3.7,10.9c0,5.9-2.1,10.6-6.4,14.4c-4.3,3.7-10.3,5.5-18,5.5c-2.8,0-5.9-0.4-9.6-1.2
		C411.7,108.1,409,107.4,407.2,106.4L407.2,106.4z M497.1,106.6c-4.3,2.4-9.3,3.7-15.3,3.7c-7.8,0-14.1-2.6-18.9-7.6
		c-4.8-5.1-7.2-11.7-7.2-20c0-8.6,2.7-15.8,8-21.3c5.4-5.5,12.3-8.3,20.7-8.3c4.4,0,8.6,0.8,12.7,2.6v5.5c-4.1-2.4-8.6-3.7-13.4-3.7
		c-6.8,0-12.1,2.3-16.4,6.9c-4.3,4.6-6.2,10.6-6.2,17.9c0,7.1,2,12.8,5.8,17.1c3.8,4.3,8.9,6.5,15.1,6.5c5.8,0,10.7-1.5,15-4.3
		L497.1,106.6L497.1,106.6z M531.2,59.5c-1.7-1.2-3.7-1.7-6.1-1.7c-4.5,0-8.4,2.3-11.3,6.7c-3.1,4.4-4.5,10.8-4.5,19v25.7h-5.1V54.4
		h5.1v12.1h0.3c1.3-4.2,3.4-7.4,6.2-9.7c2.8-2.3,6.1-3.5,9.8-3.5c2.1,0,4.1,0.2,5.7,0.9V59.5L531.2,59.5L531.2,59.5z M539.4,40.7
		c-1.1,0-2.1-0.4-3-1.2s-1.3-1.7-1.3-3c0-1.2,0.4-2.2,1.3-2.8c0.9-0.7,1.8-1.1,3-1.1s2.1,0.4,3.1,1.1c0.9,0.7,1.3,1.6,1.3,2.8
		c0,1.1-0.4,2.2-1.3,3C541.6,40.3,540.6,40.7,539.4,40.7z M536.9,109V54.4h5.1v54.7L536.9,109L536.9,109z M559.6,99.4h-0.3v34.9
		h-5.1V54.4h5.1v11.3h0.3c2.1-4.1,5-7.1,8.7-9.3c3.8-2.2,8-3.2,12.6-3.2c7.3,0,13,2.4,17.1,7.1c4.1,4.8,6.1,11.3,6.1,19.5
		c0,9.1-2.4,16.5-7.1,22.2s-10.9,8.5-18.5,8.5C570.1,110.4,563.7,106.8,559.6,99.4z M559.4,79v6.9c0,5.5,1.8,10.2,5.4,14.1
		c3.7,3.9,8.4,5.9,14.3,5.9c5.8,0,10.5-2.4,14.3-7.1c3.7-4.8,5.5-11.1,5.5-18.9c0-6.9-1.7-12.2-5.1-16.3c-3.4-4.1-7.8-6.1-13.4-6.1
		c-6.6,0-11.9,2.2-15.5,6.5C561,68.4,559.4,73.3,559.4,79z M635.3,108.3c-2.7,1.2-5.2,1.7-7.5,1.7c-8.5,0-12.7-4.8-12.7-14.5V59
		h-10.3v-4.4h10.3V40.3l2.5-0.8l2.5-0.8v15.9h15.1v4.4h-15.1V95c0,3.7,0.5,6.5,1.8,8.2s3.4,2.6,6.4,2.6c2.1,0,4.4-0.7,6.9-2
		L635.3,108.3L635.3,108.3z"/>
</g>
</svg>
