<?xml version="1.0" encoding="utf-8"?>
<!-- Generator: Adobe Illustrator 25.4.1, SVG Export Plug-In . SVG Version: 6.00 Build 0)  -->
<svg version="1.1" id="Layer_1" xmlns="http://www.w3.org/2000/svg" xmlns:xlink="http://www.w3.org/1999/xlink" x="0px" y="0px"
	 viewBox="0 0 149.9 150" style="enable-background:new 0 0 149.9 150;" xml:space="preserve">
<g>
	<path d="M70.1,0c-0.3,0-1.3,0.1-2.3,0.2C46.5,2.2,26.6,13.7,13.9,31.3c-7,9.8-11.5,21-13.2,32.8C0.1,68.2,0,69.4,0,75
		c0,5.6,0.1,6.8,0.7,10.9c4.1,28.2,24.1,51.8,51.3,60.6c4.9,1.6,10,2.6,15.8,3.3c2.3,0.2,12.1,0.2,14.4,0c10.1-1.1,18.6-3.6,27-7.9
		c1.3-0.7,1.5-0.8,1.4-1c-0.1-0.1-5.6-7.5-12.2-16.4l-12-16.2l-15-22.2c-8.3-12.2-15.1-22.2-15.1-22.2c-0.1,0-0.1,9.9-0.1,21.9
		c0,21.1-0.1,22-0.3,22.5c-0.4,0.7-0.7,1-1.3,1.3c-0.5,0.2-0.9,0.3-3.1,0.3h-2.5l-0.7-0.4c-0.4-0.3-0.8-0.6-1-1.1l-0.3-0.7l0-29.4
		l0-29.4l0.5-0.6c0.2-0.3,0.7-0.7,1.1-0.9c0.6-0.3,0.8-0.3,3.4-0.3c3,0,3.5,0.1,4.3,1c0.2,0.2,8.4,12.5,18.1,27.3s23,34.9,29.6,44.8
		l11.9,18l0.6-0.4c5.3-3.5,11-8.4,15.4-13.5c9.5-10.9,15.6-24.2,17.7-38.3c0.6-4.1,0.7-5.3,0.7-10.9c0-5.6-0.1-6.8-0.7-10.9
		C145.2,35.9,125.2,12.3,98,3.5c-4.8-1.6-9.9-2.6-15.6-3.3C81,0.1,71.3-0.1,70.1,0L70.1,0z M100.8,45.4c0.7,0.4,1.3,1,1.5,1.7
		c0.1,0.4,0.1,8.5,0.1,26.9l0,26.4l-4.6-7.1L93,86.1V67c0-12.4,0.1-19.4,0.1-19.7c0.2-0.8,0.7-1.5,1.5-1.8c0.6-0.3,0.8-0.3,3.1-0.3
		C99.9,45.1,100.3,45.1,100.8,45.4z"/>
</g>
</svg>
