<?xml version="1.0" encoding="utf-8"?>
<!-- Generator: Adobe Illustrator 25.4.1, SVG Export Plug-In . SVG Version: 6.00 Build 0)  -->
<svg version="1.1" id="Layer_1" xmlns="http://www.w3.org/2000/svg" xmlns:xlink="http://www.w3.org/1999/xlink" x="0px" y="0px"
	 viewBox="0 0 789.4 150" enable-background="new 0 0 789.4 150" xml:space="preserve">
<g>
	<path  d="M107.5,104c5.6-0.6,9.8-5.4,9.6-11.1c-0.2-5.8-5-10.4-10.8-10.4H106c-6,0.2-10.6,5.2-10.4,11.1
		c0.2,2.9,1.3,5.4,3.1,7.1c-6.5,12.9-16.5,22.3-31.5,30.1c-10.2,5.4-20.7,7.3-31.3,6c-8.6-1.2-15.4-5-19.6-11.3
		c-6.1-9.4-6.7-19.6-1.5-29.8c3.6-7.3,9.4-12.7,13.1-15.4c-0.8-2.5-1.9-6.7-2.5-9.8C-2.5,90.8,0.4,118,8.9,130.9
		c6.3,9.6,19.2,15.6,33.4,15.6c3.8,0,7.7-0.4,11.5-1.3C78.4,140.3,97,125.7,107.5,104z"/>
	<path  d="M141.3,80.2c-14.6-17.1-36.1-26.5-60.7-26.5h-3.1c-1.7-3.5-5.4-5.8-9.4-5.8h-0.4c-6,0.2-10.6,5.2-10.4,11.1
		c0.2,5.8,5,10.4,10.8,10.4h0.4c4.2-0.2,7.9-2.9,9.4-6.5h3.5c14.6,0,28.4,4.2,40.9,12.5c9.6,6.3,16.5,14.6,20.4,24.6
		c3.3,8.1,3.1,15.9-0.4,22.7c-5.4,10.2-14.4,15.7-26.3,15.7c-7.7,0-15-2.3-18.8-4c-2.1,1.9-6,5-8.6,6.9c8.3,3.8,16.7,6,24.8,6
		c18.4,0,32.1-10.2,37.2-20.4C156.1,115.7,155.7,96.5,141.3,80.2z"/>
	<path d="M43.8,107.3c0.2,5.8,5,10.4,10.8,10.4h0.4c6-0.2,10.6-5.2,10.4-11.1c-0.2-5.8-5-10.4-10.8-10.4h-0.4
		c-0.4,0-1,0-1.3,0.2c-7.9-13.1-11.1-27.3-10-42.6c0.8-11.5,4.6-21.5,11.3-29.8c5.6-7.1,16.3-10.6,23.6-10.8
		c20.4-0.4,29,25,29.6,35.1c2.5,0.6,6.7,1.9,9.6,2.9C114.7,20.1,95.5,4,77,4C59.7,4,43.8,16.5,37.5,34.9
		c-8.8,24.6-3.1,48.2,7.7,66.8C44.2,103.1,43.6,105.2,43.8,107.3z"/>
</g>
<g>
	<path d="M181.8,109.8V43.1h28.3c7.1,0,12.3,0.6,15.5,1.8c3.2,1.2,5.8,3.3,7.8,6.4c1.9,3.1,2.9,6.6,2.9,10.5c0,5-1.5,9.1-4.4,12.4
		c-2.9,3.3-7.3,5.3-13.2,6.2c2.9,1.7,5.3,3.6,7.2,5.6c1.9,2,4.4,5.6,7.7,10.8l8.1,13h-16.1l-9.7-14.5c-3.5-5.2-5.8-8.5-7.1-9.8
		c-1.3-1.3-2.6-2.3-4-2.8c-1.4-0.5-3.7-0.8-6.8-0.8h-2.7v27.8H181.8z M195.3,71.3h10c6.5,0,10.5-0.3,12.1-0.8
		c1.6-0.5,2.9-1.5,3.8-2.8c0.9-1.3,1.4-3,1.4-5c0-2.2-0.6-4.1-1.8-5.4c-1.2-1.4-2.9-2.3-5.1-2.6c-1.1-0.2-4.4-0.2-9.8-0.2h-10.5
		V71.3z"/>
	<path d="M276.9,94.4l12.7,2.1c-1.6,4.7-4.2,8.2-7.8,10.7c-3.5,2.4-8,3.7-13.3,3.7c-8.4,0-14.6-2.7-18.6-8.2
		c-3.2-4.4-4.8-9.9-4.8-16.6c0-8,2.1-14.3,6.3-18.8c4.2-4.5,9.5-6.8,15.9-6.8c7.2,0,12.9,2.4,17,7.1c4.2,4.7,6.1,12,6,21.8h-32
		c0.1,3.8,1.1,6.7,3.1,8.8c2,2.1,4.4,3.2,7.4,3.2c2,0,3.7-0.5,5-1.6C275.2,98.6,276.2,96.8,276.9,94.4z M277.6,81.5
		c-0.1-3.7-1-6.5-2.9-8.4c-1.8-1.9-4-2.9-6.6-2.9c-2.8,0-5.1,1-6.9,3c-1.8,2-2.7,4.8-2.7,8.3H277.6z"/>
	<path d="M345,109.8h-11.9v-7.1c-2,2.8-4.3,4.8-7,6.2c-2.7,1.3-5.4,2-8.1,2c-5.5,0-10.3-2.2-14.3-6.7c-4-4.5-5.9-10.7-5.9-18.7
		c0-8.2,1.9-14.4,5.8-18.7c3.9-4.3,8.7-6.4,14.6-6.4c5.4,0,10.1,2.2,14,6.7v-24H345V109.8z M310.9,84.6c0,5.2,0.7,8.9,2.1,11.2
		c2.1,3.3,4.9,5,8.6,5c2.9,0,5.4-1.3,7.5-3.8c2.1-2.5,3.1-6.2,3.1-11.2c0-5.5-1-9.5-3-12c-2-2.4-4.6-3.7-7.7-3.7
		c-3,0-5.6,1.2-7.6,3.6C312,76.2,310.9,79.8,310.9,84.6z"/>
	<path d="M389.4,109.8v-7.2c-1.8,2.6-4.1,4.6-6.9,6.1s-5.9,2.2-9.1,2.2c-3.2,0-6.2-0.7-8.7-2.1c-2.6-1.4-4.4-3.4-5.6-6
		c-1.2-2.6-1.7-6.1-1.7-10.7V61.5h12.8v22.2c0,6.8,0.2,11,0.7,12.5c0.5,1.5,1.3,2.7,2.6,3.6c1.2,0.9,2.8,1.3,4.7,1.3
		c2.2,0,4.1-0.6,5.9-1.8c1.7-1.2,2.9-2.7,3.5-4.5c0.6-1.8,1-6.1,1-13V61.5h12.8v48.3H389.4z"/>
	<path d="M408.4,109.8l17.4-24.9l-16.7-23.4h15.6l8.6,13.3l9-13.3h15l-16.4,22.9l17.9,25.4h-15.7l-9.8-15l-9.9,15H408.4z"/>
	<path d="M507.3,109.8V54.4h-19.8V43.1h53v11.3h-19.7v55.4H507.3z"/>
	<path d="M539.3,85c0-4.2,1-8.4,3.1-12.3c2.1-4,5.1-7,8.9-9.1c3.8-2.1,8.1-3.1,12.9-3.1c7.3,0,13.3,2.4,18,7.1c4.7,4.7,7,10.7,7,18
		c0,7.3-2.4,13.4-7.1,18.2c-4.7,4.8-10.7,7.2-17.8,7.2c-4.4,0-8.7-1-12.7-3s-7.1-4.9-9.2-8.8C540.3,95.2,539.3,90.5,539.3,85z
		 M552.4,85.6c0,4.8,1.1,8.5,3.4,11c2.3,2.5,5.1,3.8,8.4,3.8c3.3,0,6.1-1.3,8.4-3.8c2.3-2.5,3.4-6.2,3.4-11.1
		c0-4.7-1.1-8.4-3.4-10.9c-2.3-2.5-5.1-3.8-8.4-3.8c-3.3,0-6.1,1.3-8.4,3.8C553.5,77.2,552.4,80.8,552.4,85.6z"/>
	<path d="M596.2,85c0-4.2,1-8.4,3.1-12.3c2.1-4,5.1-7,8.9-9.1c3.8-2.1,8.1-3.1,12.9-3.1c7.3,0,13.3,2.4,18,7.1c4.7,4.7,7,10.7,7,18
		c0,7.3-2.4,13.4-7.1,18.2c-4.7,4.8-10.7,7.2-17.8,7.2c-4.4,0-8.7-1-12.7-3s-7.1-4.9-9.2-8.8C597.2,95.2,596.2,90.5,596.2,85z
		 M609.3,85.6c0,4.8,1.1,8.5,3.4,11c2.3,2.5,5.1,3.8,8.4,3.8c3.3,0,6.1-1.3,8.4-3.8c2.3-2.5,3.4-6.2,3.4-11.1
		c0-4.7-1.1-8.4-3.4-10.9c-2.3-2.5-5.1-3.8-8.4-3.8c-3.3,0-6.1,1.3-8.4,3.8C610.4,77.2,609.3,80.8,609.3,85.6z"/>
	<path d="M656,109.8V43.1h12.8v66.7H656z"/>
	<path d="M681.5,109.8V43.1h12.8v35.4l15-17H725l-16.5,17.6l17.7,30.7h-13.8l-12.1-21.7l-6,6.2v15.5H681.5z"/>
	<path d="M733.7,54.9V43.1h12.8v11.8H733.7z M733.7,109.8V61.5h12.8v48.3H733.7z"/>
	<path d="M781.8,61.5v10.2H773v19.5c0,3.9,0.1,6.2,0.3,6.9c0.2,0.7,0.5,1.2,1.1,1.6c0.6,0.4,1.3,0.6,2.2,0.6c1.2,0,2.9-0.4,5.1-1.2
		l1.1,9.9c-3,1.3-6.3,1.9-10.1,1.9c-2.3,0-4.4-0.4-6.2-1.2c-1.9-0.8-3.2-1.8-4.1-3c-0.9-1.2-1.5-2.9-1.8-5c-0.3-1.5-0.4-4.5-0.4-9
		V71.7h-5.9V61.5h5.9v-9.6l12.8-7.5v17.1H781.8z"/>
</g>
</svg>
