<?xml version="1.0" encoding="utf-8"?>
<!-- Generator: Adobe Illustrator 25.4.1, SVG Export Plug-In . SVG Version: 6.00 Build 0)  -->
<svg version="1.1"
	 id="Layer_1" xmlns:cc="http://creativecommons.org/ns#" xmlns:dc="http://purl.org/dc/elements/1.1/" xmlns:rdf="http://www.w3.org/1999/02/22-rdf-syntax-ns#"
	 xmlns="http://www.w3.org/2000/svg" xmlns:xlink="http://www.w3.org/1999/xlink" x="0px" y="0px" viewBox="0 0 160 150"
	 style="enable-background:new 0 0 160 150;" xml:space="preserve">
<style type="text/css">
	.st0{fill:#3074C0;}
</style>
<path class="st0" d="M139.9,3.2H19.2c-8.1,0-14.6,6.3-14.6,14v115.1c0,7.7,6.6,14,14.6,14h120.7c8.1,0,14.6-6.3,14.6-14V17.1
	C154.6,9.4,148,3.2,139.9,3.2z M91.6,83.2H72.9v53.6h-15V83.2H39.2v-12h52.4C91.6,71.2,91.6,83.2,91.6,83.2z M139.9,127.2
	c-1.2,2.6-3.2,4.6-5.6,6.2c-2.3,1.4-5,2.5-8.2,3.2s-6.4,1-10,1s-7-0.3-10.3-0.9s-6.1-1.5-8.5-2.8v-14.1c-0.2-0.1-0.4-0.3-0.6-0.4
	l0.6-0.1v0.6c2.5,2,5.2,3.5,8.2,4.6c2.9,1.1,6.2,1.7,9.4,1.7c2.1,0,3.6-0.2,5-0.5c1.4-0.4,2.6-0.8,3.5-1.4s1.6-1.3,2.1-2.1
	s0.7-1.7,0.7-2.6c0-1.3-0.4-2.5-1.1-3.5s-1.7-1.9-2.9-2.8c-1.2-0.8-2.6-1.7-4.4-2.5s-3.5-1.6-5.6-2.4c-5-2.3-8.9-4.7-11.4-7.9
	c-2.5-2.9-3.8-6.7-3.8-11.1c0-3.5,0.7-6.3,2.1-8.8c1.5-2.6,3.2-4.6,5.6-6.2c2.3-1.6,5-2.8,8.2-3.5s6.4-1.1,10-1.1s6.4,0.2,9.1,0.6
	s5.1,1.1,7.3,1.9v13.8c-1-0.8-2.2-1.4-3.5-2c-1.4-0.6-2.7-1.1-4.1-1.4s-2.8-0.7-4.1-0.8c-1.3-0.2-2.6-0.3-3.8-0.3
	c-1.8,0-3.3,0.1-4.7,0.5c-1.4,0.3-2.6,0.8-3.5,1.3s-1.7,1.3-2.2,2.1s-0.8,1.7-0.8,2.7c0,1.1,0.3,2.1,0.9,2.9s1.4,1.7,2.5,2.5
	c1,0.8,2.3,1.5,3.8,2.3c1.8,0.8,3.3,1.5,5.3,2.3c2.6,1.1,5,2.3,7,3.5s3.8,2.5,5.3,4.1c1.6,1.5,2.7,3.2,3.5,5.3s1.2,4.4,1.2,7
	C142,121.6,141.1,124.5,139.9,127.2z"/>
</svg>
