<?xml version="1.0" encoding="utf-8"?>
<!-- Generator: Adobe Illustrator 25.4.1, SVG Export Plug-In . SVG Version: 6.00 Build 0)  -->
<svg version="1.1"
	 id="svg3476" xmlns:cc="http://creativecommons.org/ns#" xmlns:dc="http://purl.org/dc/elements/1.1/" xmlns:inkscape="http://www.inkscape.org/namespaces/inkscape" xmlns:rdf="http://www.w3.org/1999/02/22-rdf-syntax-ns#" xmlns:sodipodi="http://sodipodi.sourceforge.net/DTD/sodipodi-0.dtd" xmlns:svg="http://www.w3.org/2000/svg"
	 xmlns="http://www.w3.org/2000/svg" xmlns:xlink="http://www.w3.org/1999/xlink" x="0px" y="0px" viewBox="0 0 354.1 150"
	 style="enable-background:new 0 0 354.1 150;" xml:space="preserve">
<style type="text/css">
	
</style>
<sodipodi:namedview  bordercolor="#666666" borderopacity="1.0" fit-margin-bottom="0" fit-margin-left="0" fit-margin-right="0" fit-margin-top="0" id="base" inkscape:current-layer="layer1" inkscape:cx="37.811232" inkscape:cy="51.471985" inkscape:document-units="px" inkscape:pageopacity="0.0" inkscape:pageshadow="2" inkscape:window-height="1016" inkscape:window-maximized="1" inkscape:window-width="1850" inkscape:window-x="70" inkscape:window-y="27" inkscape:zoom="6.0991803" pagecolor="#ffffff" showgrid="false" units="px">
	</sodipodi:namedview>
<g id="layer1" transform="translate(-193.633,-732.11218)" inkscape:groupmode="layer" inkscape:label="Calque 1">
	<g id="g29" transform="translate(-10.821126,3.1151727)">
		<path id="path2999" inkscape:connector-curvature="0" d="M360.4,766.5H418v24.1h-33.5v24.1H418v24.1h-57.6V766.5z"/>
		<path id="path3001" inkscape:connector-curvature="0" d="M429.5,766.5h57.6v20.9h-33.5v4.2h33.5v48.2h-57.6v-22H463v-4.2h-33.5
			V766.5z"/>
		<path id="path3003" inkscape:connector-curvature="0" d="M498.6,766.5h57.6v20.9h-33.5v4.2h33.5v48.2h-57.6v-22h33.5v-4.2h-33.5
			V766.5z"/>
	</g>
	<path class="st0" d="M195.8,734.4l11.7,130.9l52.4,14.5l52.5-14.6l11.7-130.9H195.8z M297.2,793.7l-0.4,4.3l-3.8,42.3l-0.2,2.7
		l-32.9,9.1v0l-0.1,0L227,843l-2.2-25.2h7.4h8.7l1.1,12.8l17.9,4.8l0,0v0l17.9-4.8l1.9-20.8H260h-0.1H224l-1.4-16.1h37.3h0.1h21.1
		l1.5-16.4H260h-0.1h-38.8l-1.5-16.1h40.2h0.1h40.2L297.2,793.7z"/>
</g>
</svg>
