<?xml version="1.0" encoding="utf-8"?>
<!-- Generator: Adobe Illustrator 25.4.1, SVG Export Plug-In . SVG Version: 6.00 Build 0)  -->
<svg version="1.1" id="Layer_1" xmlns="http://www.w3.org/2000/svg" xmlns:xlink="http://www.w3.org/1999/xlink" x="0px" y="0px"
	 viewBox="0 0 187 150" style="enable-background:new 0 0 187 150;" xml:space="preserve">
<style type="text/css">
	.st0{fill:url(#SVGID_1_);}
	.st1{fill:url(#SVGID_00000158737895330585727310000012319818031716770746_);stroke:#FFFFFF;}
</style>
<linearGradient id="SVGID_1_" gradientUnits="userSpaceOnUse" x1="23.6175" y1="660.1169" x2="176.4305" y2="781.4199" gradientTransform="matrix(1 0 0 1 0 -640)">
	<stop  offset="0" style="stop-color:#9013FE"/>
	<stop  offset="1" style="stop-color:#6610F2"/>
</linearGradient>
<path class="st0" d="M25.3,24.1c-0.3-9.5,7.1-18.2,17-18.2h102.2c10,0,17.4,8.7,17,18.2c-0.3,9.1,0.1,20.9,3.1,30.5
	c3,9.6,7.9,15.7,16.2,16.6V80c-8.2,0.7-13.3,6.9-16.2,16.6c-3,9.6-3.4,21.4-3.1,30.5c0.4,9.4-7,18.2-17,18.2H42.3
	c-10,0-17.4-8.7-17-18.2c0.3-9.1-0.1-20.9-3.1-30.5C19.3,86.8,14.3,80.7,6,79.9V71c8.2-0.7,13.3-6.9,16.3-16.6
	C25.2,44.9,25.7,33.1,25.3,24.1z"/>
<linearGradient id="SVGID_00000088090623218421852360000012692250984251431301_" gradientUnits="userSpaceOnUse" x1="70.6412" y1="684.1961" x2="104.799" y2="741.9644" gradientTransform="matrix(1 0 0 1 0 -640)">
	<stop  offset="0" style="stop-color:#FFFFFF"/>
	<stop  offset="1" style="stop-color:#F1E5FC"/>
</linearGradient>
<path style="fill:url(#SVGID_00000088090623218421852360000012692250984251431301_);stroke:#FFFFFF;" d="M97.2,112.5
	c16.2,0,25.9-7.9,25.9-21c0-9.8-6.9-17-17.3-18.1v-0.4c7.6-1.2,13.6-8.2,13.6-16.1c0-11.2-8.9-18.5-22.4-18.5H66.8v74.1
	C66.8,112.5,97.2,112.5,97.2,112.5z M78.6,47.8h15.7c8.5,0,13.4,3.8,13.4,10.7c0,7.4-5.6,11.4-15.8,11.4H78.6
	C78.6,70,78.6,47.8,78.6,47.8z M78.6,103.2V78.8h15.6c11.1,0,16.9,4.1,16.9,12.2s-5.6,12.3-16.3,12.3H78.6z"/>
</svg>
