<?xml version="1.0" encoding="utf-8"?>
<!-- Generator: Adobe Illustrator 25.4.1, SVG Export Plug-In . SVG Version: 6.00 Build 0)  -->
<svg version="1.1" id="Layer_1" xmlns="http://www.w3.org/2000/svg" xmlns:xlink="http://www.w3.org/1999/xlink" x="0px" y="0px"
	 viewBox="0 0 297.9 150" enable-background="new 0 0 297.9 150" xml:space="preserve">
<path d="M254.7,85.9c-10.2,0-19.1,1.7-26.5,4.1c-2.7-3.6-5.5-6.8-5.9-9.2c-0.5-2.7-1.2-4.4-0.5-7.7c0.6-3.3,3.5-7.9,3.5-8.3
	s-0.6-2-6.5-2.1c-5.9,0-11,0.7-11.6,1.8c-0.6,1-1.7,3.4-2.5,5.8c-1,3.6-11.8,16.3-17.9,22.9c-2-2.6-3.7-4.9-4.1-6.7
	c-0.5-2.7-1.2-4.4-0.5-7.7c0.6-3.3,3.5-7.9,3.5-8.3c-0.1-0.4-0.6-2-6.5-2.1c-5.9,0-11,0.7-11.6,1.8c-0.6,1-1.2,3.5-2.5,5.8
	c-1.2,2.4-15.5,23.6-19.3,29.1c-1.9,2.8-3.6,5.1-4.8,6.6l0,0c0,0-0.1,0.1-0.2,0.3c-1,1.3-1.6,2-1.6,2s0,0,0,0
	c-0.8,1-1.7,1.9-2.1,1.9c-0.3,0-0.9-2.6,0.1-6.1c2.1-7.4,7.2-18.8,7.2-19.2c0-0.2,1-2.2-3.3-3.2c-4.2-1-5.7,0.7-6,0.7
	c-0.4,0-0.6,0.6-0.6,0.6s4.7-12.9-8.9-12.9c-8.5,0-20.1,6.2-25.9,11.7c-3.6,1.3-11.4,4.1-19.7,7.2c-3.2,1.2-6.4,2.4-9.5,3.5
	c-0.2-0.1-0.4-0.3-0.6-0.5C53.4,86.1,23.1,77.9,24.3,62.2c0.5-5.7,3.4-20.7,58.2-38.8c45.1-14.8,80.9-10.7,87.1-1.6
	c8.9,13-19.2,37-65.8,40.5c-17.8,1.3-27.1-3.2-29.4-5c-2.5-1.8-2.8-1.9-3.7-1.5c-1.5,0.5-0.5,2.1,0,3.1c1.4,2.4,7.1,6.7,16.8,8.8
	c8.6,1.9,29.4,2.9,54.6-3.6c28.2-7.3,50.3-27.5,43.8-44.4C179.4,2.6,136.6-3.1,96.1,6.5c-24.1,5.7-50.2,14.7-69,26.4
	c-22.3,13.9-25.9,26-24.4,31c5.2,17.9,42.4,29.6,57.3,38.3c-0.7,0.3-1.4,0.5-2,0.7c-7.4,2.5-35.8,12.3-42.9,22.8
	c-8,11.8,1.3,20.3,7.4,21.4c19.1,3.5,38.8-2.8,49.3-13.3c10.5-10.5,9.3-24.1,4.4-30.3c-0.1-0.1-0.1-0.1-0.2-0.2
	c1.9-0.7,3.9-1.5,5.8-2.3c3.8-1.5,7.5-2.9,10.8-4c-1.8,3.3-3.2,7.3-3.8,13c-0.8,6.7,3.3,15.4,8.7,18.8c2.4,1.5,5.2,1.5,7.1,1.5
	c6.3,0,9.2-3.5,12.3-7.6c3.9-5.1,7.3-10.9,7.3-10.9s-4.3,15.9,7.4,15.9c4.3,0,8.6-3.7,10.5-5.6c0,0,0,0,0,0s0.1-0.1,0.3-0.4
	c0.4-0.5,0.7-0.7,0.7-0.7s0,0,0-0.1c1.7-2,5.6-6.5,11.3-14c7.4-9.7,14.5-21.8,14.5-21.8s0.6,3,2.8,7.9c1.3,2.9,4,6.1,6.1,9.1
	c-1.7,1.6-2.8,2.5-2.8,2.5s0,0,0.1,0c-1.4,1.2-2.9,2.5-4.5,3.8c-5.8,4.6-12.8,9.9-13.8,11.5c-1.1,1.8-0.9,3.1,1.3,4.2
	c1.6,0.8,4.3,0.9,7.2,0.8c5.2-0.2,8.9-1.1,10.8-1.6c2.8-0.7,6.2-1.7,9.3-3.2c5.7-2.8,9.2-6.8,8.9-12.1c-0.2-2.9-1.6-5.8-3.4-8.6
	c0.5-0.5,1-1,1.6-1.5c9-8.8,16.1-18.4,16.1-18.4s0.6,3,2.8,7.9c1.1,2.5,3.3,5.2,5.2,7.8c-8.5,4.6-13.8,9.9-15.6,13.4
	c-3.4,6.5-0.7,9.4,4.2,10.1c2.2,0.3,5.5-0.4,7.8-1.1c3-0.6,6.5-1.7,9.9-3.4c5.7-2.8,11.2-6.7,10.9-12c-0.2-2.4-1.1-4.8-2.5-7.1
	c7.2-2,16.5-3.1,28.4-2.2c25.5,2,30.5,12.6,29.5,17c-1,4.5-6.3,6.9-8.1,7.6c-1.8,0.7-2.4,1-2.2,1.5c0.2,0.8,1.1,0.7,2.6,0.6
	c2.1-0.2,13.4-3.6,13.9-11.8C296.2,97.2,281.2,85.8,254.7,85.9z M58.2,130c-8.5,6.1-20.2,8.4-25.3,6.5c-5.5-2.1-3.3-11.1,7.1-17.6
	c6.3-4,14.5-7.6,19.9-9.9c1.2-0.5,3.1-1.2,5.2-2.1c0.4-0.1,0.6-0.2,0.6-0.2l0,0c0.4-0.2,0.9-0.4,1.3-0.5
	C70.7,115.4,67.1,123.6,58.2,130z M119.7,102.2c-2.9,4.8-9.1,17-12.8,16.3c-3.2-0.6-5.2-9.8-0.6-19c2.3-4.6,7.2-10.1,10-12.2
	c4.6-3.4,9.7-4.6,10.9-3.2C128.7,85.9,121.5,99.2,119.7,102.2z M170.5,118.3c-1.2,0.4-2.4,0.7-2.9,0.5c-0.4-0.1,0.5-0.7,0.5-0.7
	s6.4-4.6,8.9-6.6c1.4-1.2,3.2-2.6,5-4.2c0,0.1,0,0.3,0,0.5C182,113.2,174.1,116.8,170.5,118.3z M209.7,112.4
	c-0.9-0.4-0.7-1.9,2.3-6.3c1.2-1.7,4-4.7,8.7-7.5c0.5,1.1,0.9,2.2,0.9,3.3C221.5,108.7,214.2,111.3,209.7,112.4z"/>
</svg>
