<?xml version="1.0" encoding="utf-8"?>
<!-- Generator: Adobe Illustrator 25.4.1, SVG Export Plug-In . SVG Version: 6.00 Build 0)  -->
<svg version="1.1" id="Layer_1" xmlns="http://www.w3.org/2000/svg" xmlns:xlink="http://www.w3.org/1999/xlink" x="0px" y="0px"
	 viewBox="0 0 49.9 50" enable-background="new 0 0 49.9 50" xml:space="preserve">
<path fill="#E88CB6" d="M48.3,15.6C44.6,7,38.1,1.9,28.9,0.2C28.4,0.1,28,0.1,27.5,0c-1.7,0-3.3,0-5,0c-1.9,0.3-3.7,0.6-5.5,1.2
	C7.4,4.8,1.7,11.7,0.1,21.9c0,0.2-0.1,0.4-0.1,0.6c0,1.7,0,3.3,0,5c0.3,2.4,0.8,4.7,1.7,6.9C5.4,43,11.9,48.1,21.1,49.8
	c0.5,0.1,0.9,0.1,1.4,0.2c1.7,0,3.3,0,5,0c1.9-0.3,3.7-0.6,5.5-1.2c9.6-3.6,15.3-10.5,16.9-20.7c0-0.2,0.1-0.4,0.1-0.6
	c0-1.7,0-3.3,0-5C49.7,20.1,49.2,17.8,48.3,15.6z M40.6,14c-0.9,3.8-3.5,6.4-7.1,7.9c-2.8,1.2-5.8,1.8-8.8,1.3
	c-1.2-0.2-2.2-0.7-3.1-1.5c-0.3-0.3-0.6-0.7-0.8-1.2c0-0.2-0.1-0.3,0.1-0.4c0.1-0.1,0.3,0,0.4,0.1c2,1.8,4.4,1.7,6.9,1.2
	c3-0.6,5.6-2,7.8-4.2c0.9-0.9,1.6-1.9,2-3.2c0.8-2.3-0.1-4-2.5-4.6c-2.3-0.7-4.6-0.5-6.9,0.1c-5,1.3-9.5,3.6-13.2,7.2
	c-0.9,0.9-1.7,2-2.1,3.2c-0.7,2-0.3,3.7,1,5.2c1,1.2,2.3,2.2,3.6,3.2c0.9,0.7,1.8,1.3,2.5,2.1c0.4,0.4,0.8,0.5,1.3,0.4
	c2.1-0.4,4.3-0.6,6.4,0.2c2.1,0.8,3.4,2.2,3.7,4.5c0.2,1.4-0.7,2.9-2,3.4c-0.2,0.1-0.4,0.2-0.5,0c-0.1-0.2,0.1-0.3,0.3-0.4
	c1.9-1.3,1.6-3.6-0.2-5c-2.1-1.6-4.4-1.7-6.9-1.3c-0.6,0.1-0.5,0.5-0.4,0.9c0.5,2,0.3,4-0.6,6c-1.4,3-4.8,4.9-8,4.5
	c-1.7-0.2-2.6-1.2-2.8-2.9c-0.1-1.9,0.7-3.4,2-4.7c1.6-1.5,3.5-2.6,5.4-3.7c0.7-0.4,0.7-0.5,0.1-1c-1.8-1.3-3.7-2.5-5.4-3.9
	c-1.3-1.2-2.6-2.4-3.3-4.1c-0.5-1.2-0.5-2.5-0.1-3.7c1-2.8,2.9-4.9,5.1-6.6c3.8-3,8.1-5.1,12.8-6.3c1.5-0.4,3-0.5,4.6-0.6
	c1.9,0.1,3.9,0.3,5.7,1.3C40.5,8.8,41.3,11.1,40.6,14z"/>
<path fill="#E88CB6" d="M12.5,40.2c-0.4,1.9,0.6,2.8,2.4,2.3c3.4-0.9,6-4.3,6-8.2c0-0.2-0.1-0.7-0.1-1.1c-0.1-0.8-0.4-1-1.1-0.6
	c-1.9,1-3.6,2.2-5.1,3.7C13.6,37.5,12.8,38.7,12.5,40.2z"/>
</svg>
