<?xml version="1.0" encoding="utf-8"?>
<!-- Generator: Adobe Illustrator 25.4.1, SVG Export Plug-In . SVG Version: 6.00 Build 0)  -->
<svg version="1.1" id="Layer_1" xmlns="http://www.w3.org/2000/svg" xmlns:xlink="http://www.w3.org/1999/xlink" x="0px" y="0px"
	 viewBox="0 0 718.1 150" style="enable-background:new 0 0 718.1 150;" xml:space="preserve">
<g>
	<path d="M57.8,51.4c7.5-31.7,25.6-47.2,54.3-47.2c43.7,0,49.3,35.1,71.2,41.2c14.4,4,27.5-2,38.1-17.5C214,59.5,195.9,75,167.1,75
		c-43.7,0-49.3-35.1-71.2-41.2C81.6,29.8,69.1,35.9,57.8,51.4L57.8,51.4z M3.5,122.3C11,90.5,29.1,75,57.8,75
		c43.7,0,49.3,35.1,71.2,41.2c14.4,4,27.5-2,38.1-17.5c-7.5,31.7-25.6,47.2-54.3,47.2c-43.7,0-49.3-35.1-71.2-41.2
		C27.2,100.7,14.1,106.7,3.5,122.3z"/>
	<path d="M246.1,62.7h-17.5V51.2h47.2v11.5h-17.5v51h-12.2C246.1,113.7,246.1,62.7,246.1,62.7z M297.9,107.9
		c-1.5,1.6-3.8,3.3-5.3,4.9c-2.3,1.6-4.6,1.6-8.4,1.6c-1.5,0-3.8,0-5.3-0.8c-1.5-0.8-3-1.6-4.6-2.5c-1.5-0.8-2.3-2.5-3-4.1
		c-0.8-1.6-0.8-3.3-0.8-5.8c0-3.3,0.8-5.8,2.3-7.4c1.5-1.6,3-3.3,5.3-4.9c2.3-0.8,4.6-1.6,6.9-2.5c2.3-0.8,5.3-0.8,7.6-0.8h5.3v-2.5
		c0-2.5-0.8-4.9-2.3-5.8c-1.5-0.8-3-1.6-5.3-1.6c-4.6,0-6.9,1.6-7.6,5.8L272,80.8c0.8-4.9,3-8.2,6.1-10.7c3-2.5,7.6-3.3,13-3.3
		c3,0,6.1,0,8.4,1.6s3.8,1.6,5.3,3.3c1.5,1.6,2.3,3.3,3,5.8c0.8,2.5,0.8,4.9,0.8,7.4v28.8h-10.7V107.9L297.9,107.9z M297.9,93.1
		h-5.3c-2.3,0-4.6,0-6.1,0.8c-1.5,0.8-2.3,0.8-3,1.6c-0.8,0.8-1.5,1.6-1.5,2.5s-0.8,1.6-0.8,2.5c0,1.6,0.8,2.5,1.5,3.3
		c0.8,0.8,2.3,1.6,3.8,1.6c3,0,5.3-0.8,6.9-2.5c0.8-0.8,1.5-1.6,2.3-3.3c0.8-1.6,0.8-2.5,0.8-4.9L297.9,93.1L297.9,93.1z
		 M318.4,68.4h11.4v45.3h-11.4V68.4z M317.7,51.2h11.4v10.7h-11.4V51.2z M339,51.2h11.4v62.5H339V51.2z M355.8,68.4h12.2l6.1,30.5
		l8.4-29.6h9.9l7.6,29.6l6.1-30.5h12.2L406,113.7h-10.7l-7.6-30.5l-7.6,30.5h-10.7L355.8,68.4L355.8,68.4z M422,68.4h11.4v45.3H422
		V68.4z M422,51.2h11.4v10.7H422V51.2z M443.4,68.4H454v5.8c1.5-2.5,3.8-4.9,6.1-5.8c2.3-0.8,4.6-1.6,6.9-1.6
		c4.6,0,8.4,1.6,10.7,4.1s3.8,6.6,3.8,13.2v30.5H470V85.7c0-3.3-0.8-5.8-1.5-6.6c-0.8-0.8-2.3-1.6-4.6-1.6c-1.5,0-3,0-3.8,0.8
		c-0.8,0.8-2.3,0.8-3,1.6c-0.8,0.8-1.5,1.6-1.5,3.3c-0.8,0.8-0.8,2.5-0.8,4.1v27.2h-11.4L443.4,68.4L443.4,68.4z M520.3,107.9
		c-3,4.9-7.6,7.4-13,7.4c-6.1,0-10.7-2.5-13-6.6c-2.3-4.1-4.6-9.9-4.6-18.1c0-3.3,0.8-6.6,1.5-9.9c0.8-3.3,2.3-5.8,3.8-7.4
		c1.5-2.5,3.8-4.1,6.1-4.9c2.3-0.8,4.6-1.6,7.6-1.6c2.3,0,4.6,0,6.1,0.8c1.5,0.8,3.8,2.5,6.1,4.9V51.2h11.4v62.5h-10.7L520.3,107.9
		L520.3,107.9z M519.5,90.7c0-3.3,0-4.9-0.8-7.4s-1.5-3.3-2.3-4.1c-0.8-0.8-2.3-1.6-3-1.6c-0.8,0-2.3-0.8-3.8-0.8
		c-1.5,0-2.3,0-3.8,0.8c-0.8,0.8-2.3,1.6-3,2.5c-0.8,0.8-1.5,2.5-2.3,4.1c-0.8,1.6-0.8,4.1-0.8,6.6s0,4.9,0.8,6.6
		c0.8,1.6,0.8,3.3,1.5,4.1c0.8,0.8,1.5,1.6,3,2.5c1.5,0.8,2.3,0.8,3.8,0.8c3,0,4.6-0.8,6.9-2.5c0.8-0.8,2.3-2.5,2.3-4.1
		c0.8-1.6,0.8-4.1,0.8-6.6L519.5,90.7L519.5,90.7z M608.7,92.3c0,3.3-0.8,6.6-2.3,9.1c-0.8,2.5-3,4.9-4.6,7.4
		c-2.3,2.5-4.6,4.1-7.6,4.9c-3,0.8-6.1,1.6-9.9,1.6c-4.6,0-8.4-0.8-11.4-2.5c-3-1.6-6.1-4.1-8.4-6.6c-2.3-2.5-3.8-6.6-5.3-10.7
		c-1.5-4.1-1.5-8.2-1.5-13.2s0.8-9.9,1.5-14c0.8-4.1,3-7.4,5.3-10.7c2.3-3.3,5.3-4.9,8.4-6.6c3-1.6,6.9-1.6,11.4-1.6
		c3.8,0,6.9,0.8,9.9,1.6c3,0.8,5.3,2.5,6.9,4.1c1.5,1.6,3,4.1,4.6,6.6c1.5,2.5,2.3,5.8,2.3,9.1l-12.2,1.6c-0.8-3.3-1.5-6.6-3-9.1
		c-1.5-2.5-4.6-3.3-8.4-3.3c-4.6,0-8.4,1.6-10.7,5.8s-3.8,9.1-3.8,15.6c0,6.6,1.5,12.3,3.8,15.6c2.3,3.3,6.1,5.8,10.7,5.8
		c3.8,0,6.1-0.8,8.4-3.3s3-4.9,3-9.1L608.7,92.3z M626.2,93.1c0,4.1,1.5,6.6,3,8.2c1.5,1.6,5.3,2.5,9.1,2.5c1.5,0,3.8,0,4.6-0.8
		c0.8-0.8,2.3-0.8,3-1.6c0.8-0.8,1.5-1.6,1.5-2.5c0-0.8,0.8-2.5,0.8-3.3c0-1.6-0.8-3.3-1.5-4.9s-3-2.5-6.1-3.3l-7.6-1.6
		c-3-0.8-5.3-1.6-7.6-2.5s-4.6-0.8-6.1-2.5c-1.5-1.6-3-3.3-3.8-5.8s-1.5-4.9-1.5-7.4c0-2.5,0.8-5.8,1.5-8.2c2.3-1.6,3.8-3.3,5.3-4.9
		c2.3-1.6,4.6-2.5,6.9-3.3c2.3-0.8,6.1-1.6,9.9-1.6c4.6,0,7.6,0.8,10.7,1.6c3,0.8,5.3,2.5,6.9,4.1c1.5,1.6,3,4.1,3.8,5.8
		c0.8,1.6,1.5,4.9,1.5,7.4L649,70.1c-0.8-3.3-1.5-5.8-3-7.4c-1.5-1.6-4.6-2.5-7.6-2.5c-2.3,0-3.8,0-5.3,0.8c-1.5,0.8-2.3,0.8-3,1.6
		c-0.8,0.8-1.5,1.6-1.5,2.5c0,0.8-0.8,1.6-0.8,2.5c0,2.5,0.8,4.1,1.5,4.9c0.8,0.8,3,2.5,6.1,2.5l7.6,1.6c6.1,1.6,10.7,3.3,13.7,6.6
		s4.6,7.4,4.6,13.2c0,2.5-0.8,4.9-1.5,7.4c-0.8,2.5-2.3,4.1-4.6,5.8c-2.3,1.6-4.6,3.3-6.9,4.1c-3,0.8-6.1,1.6-9.9,1.6
		c-7.6,0-13.7-1.6-18.3-5.8c-4.6-4.1-6.1-9.1-6.9-16.5H626.2L626.2,93.1z M678.7,93.1c0,4.1,1.5,6.6,3,8.2c1.5,1.6,5.3,2.5,9.1,2.5
		c1.5,0,3.8,0,4.6-0.8c0.8-0.8,2.3-0.8,3-1.6s1.5-1.6,1.5-2.5c0-0.8,0.8-2.5,0.8-3.3c0-1.6-0.8-3.3-1.5-4.9c-1.5-1.6-3-2.5-6.1-3.3
		l-7.6-1.6c-3-0.8-5.3-1.6-7.6-2.5s-3.8-0.8-6.1-2.5s-3-3.3-3.8-5.8s-1.5-4.9-1.5-7.4c0-2.5,0.8-5.8,1.5-8.2s2.3-4.1,4.6-5.8
		c2.3-1.6,4.6-2.5,6.9-3.3c2.3-0.8,6.9-0.8,10.7-0.8c4.6,0,7.6,0.8,10.7,1.6c3,0.8,5.3,2.5,6.9,4.1c1.5,1.6,3,4.1,3.8,5.8
		c0.8,1.6,1.5,4.9,1.5,7.4l-11.4,1.6c-0.8-3.3-1.5-5.8-3-7.4c-1.5-1.6-4.6-2.5-7.6-2.5c-2.3,0-3.8,0-5.3,0.8c-1.5,0.8-3,0.8-3.8,1.6
		c-0.8,0.8-1.5,1.6-1.5,2.5c0,0.8-0.8,1.6-0.8,2.5c0,2.5,0.8,4.1,1.5,4.9c0.8,0.8,3,2.5,6.1,2.5l8.4,1.6c6.1,1.6,10.7,3.3,13.7,6.6
		s4.6,7.4,4.6,13.2c0,2.5-0.8,4.9-1.5,7.4c-0.8,2.5-2.3,4.1-4.6,5.8c-1.5,1.6-4.6,3.3-6.9,4.1c-2.3,0.8-6.1,1.6-9.9,1.6
		c-7.6,0-13.7-1.6-18.3-5.8c-4.6-4.1-6.1-9.1-6.9-16.5L678.7,93.1z"/>
</g>
</svg>
