<?xml version="1.0" encoding="utf-8"?>
<!-- Generator: Adobe Illustrator 25.4.1, SVG Export Plug-In . SVG Version: 6.00 Build 0)  -->
<svg version="1.1" id="Layer_1" xmlns="http://www.w3.org/2000/svg" xmlns:xlink="http://www.w3.org/1999/xlink"
	 viewBox="0 0 670 150"  xml:space="preserve">
<style type="text/css">
	.st0{fill-rule:evenodd;clip-rule:evenodd;}
</style>
<g>
	<g>
		<g transform="translate(193.000000, 289.000000)">
		</g>
		<path  d="M68.7,39.7c7-0.5,14.2-0.8,21.7-0.7l0,0c1.4,0,2.6-1.1,2.6-2.5c0-0.6-0.2-1.2-0.6-1.6
			C75.4,14,61.5,3.5,50.5,3.5C39.2,3.5,36,16,40.9,41l0,0c0.2,1.4,1.6,2.3,2.9,2C52.5,41.4,60.8,40.4,68.7,39.7z"/>
		<path d="M108.1,43.2c4.1,5.8,8,12,11.6,18.5l0,0c0.7,1.2,2.3,1.7,3.5,1c0.5-0.3,0.9-0.8,1.1-1.3
			c9.6-25.1,11.6-42.5,6-52c-5.7-9.8-18.2-6.4-37.5,10.2l0,0c-1,0.9-1.2,2.5-0.3,3.6C98.3,29.9,103.5,36.6,108.1,43.2z"/>
		<path d="M125,78.3c-3,6.4-6.4,12.8-10.2,19.2c-0.7,1.2-0.3,2.8,0.9,3.5c0.5,0.3,1.1,0.4,1.7,0.3
			c26.4-4.3,42.4-11.3,47.8-20.8c5.7-9.8-3.4-18.9-27.4-27l0,0c-1.3-0.4-2.8,0.2-3.2,1.5C131.7,63.3,128.5,71.1,125,78.3z"/>
		<path  d="M103.4,111.3c-7,0.5-14.2,0.8-21.7,0.7l0,0c-1.4,0-2.6,1.1-2.6,2.5c0,0.6,0.2,1.2,0.6,1.6
			c16.9,20.9,30.9,31.3,41.9,31.3c11.3,0,14.5-12.5,9.7-37.4l0,0c-0.2-1.4-1.6-2.3-2.9-2C119.6,109.6,111.3,110.6,103.4,111.3z"/>
		<path  d="M63.1,108.1c-4.1-5.8-8-12-11.6-18.5l0,0c-0.7-1.2-2.3-1.7-3.5-1c-0.5,0.3-0.9,0.8-1.1,1.3
			c-9.6,25.1-11.6,42.5-6,52c5.7,9.8,18.2,6.4,37.5-10.2l0,0c1-0.9,1.2-2.5,0.3-3.6C72.8,121.4,67.7,114.7,63.1,108.1z"/>
		<path  d="M46.1,72.1c3-6.4,6.4-12.8,10.2-19.2c0.7-1.2,0.3-2.8-0.9-3.5c-0.5-0.3-1.1-0.4-1.7-0.3
			C27.3,53.4,11.3,60.3,5.8,69.9c-5.7,9.8,3.5,18.9,27.4,27l0,0c1.3,0.4,2.8-0.2,3.2-1.5C39.4,87.1,42.6,79.3,46.1,72.1z"/>
		<g transform="translate(175.000000, 160.000000)">
			<path class="st0" d="M-101-112.7h21.9c3.2,0,6.2,1.7,7.8,4.5l11,19.2c1.6,2.8,1.6,6.1,0,8.9l-11,19.2c-1.6,2.8-4.6,4.5-7.8,4.5
				H-101c-3.2,0-6.2-1.7-7.8-4.5l-11-19.2c-1.6-2.8-1.6-6.1,0-8.9l11-19.2C-107.2-111-104.2-112.7-101-112.7z M-82.5-107
				c3.2,0,6.2,1.7,7.8,4.5l7.7,13.4c1.6,2.8,1.6,6.1,0,8.9l-7.7,13.4c-1.6,2.8-4.6,4.5-7.8,4.5h-15.2c-3.2,0-6.2-1.7-7.8-4.5
				l-7.7-13.4c-1.6-2.8-1.6-6.1,0-8.9l7.7-13.4c1.6-2.8,4.6-4.5,7.8-4.5C-97.7-107-82.5-107-82.5-107z M-86-100.6h-8
				c-3.2,0-6.2,1.7-7.8,4.5l0,0l-4.1,7.1c-1.6,2.8-1.6,6.2,0,8.9l0,0l4.1,7c1.6,2.8,4.6,4.5,7.8,4.5l0,0h8c3.2,0,6.2-1.7,7.8-4.5
				l0,0l4.1-7.1c1.6-2.8,1.6-6.2,0-8.9l0,0l-4.1-7C-79.9-98.9-82.9-100.6-86-100.6L-86-100.6z M-89.5-94.6c3.2,0,6.2,1.7,7.8,4.5
				l0.6,1c1.6,2.8,1.6,6.2,0,8.9l-0.6,1c-1.6,2.8-4.6,4.5-7.8,4.5h-1.1c-3.2,0-6.2-1.7-7.8-4.5l-0.6-1c-1.6-2.8-1.6-6.2,0-8.9l0.6-1
				c1.6-2.8,4.6-4.5,7.8-4.5H-89.5z M-90.1-88.7c-1.4,0-2.8,0.8-3.4,2c-0.7,1.2-0.7,2.8,0,4c0.7,1.2,2,2,3.4,2l0,0
				c1.4,0,2.8-0.8,3.4-2c0.7-1.2,0.7-2.8,0-4C-87.3-87.9-88.7-88.7-90.1-88.7L-90.1-88.7z M-122.3-84.7h7.2"/>
		</g>
		<path d="M211.5,108V85.3h12.4l11.7,22.7h15.6l-12-24.8c3.6-1.5,6.5-4,8.5-7.6s3.1-7.3,3.1-11.1c0-6.1-1.7-11.1-5.2-15
			c-3.5-3.9-9-5.8-16.8-5.8l0,0h-31.3V108H211.5z M229,72.1h-17.6V56.9H229c2.6,0,4.4,0.7,5.5,2.2c1.1,1.4,1.7,3.2,1.7,5.4
			C236.3,69.6,233.9,72.1,229,72.1L229,72.1z M272.1,109.2c7.5,0,13.6-2.8,18.3-8.5l0,0l-7.7-7.7c-2.8,3.3-6.3,5-10.6,5
			c-2.6,0-4.8-0.7-6.5-2.2c-1.7-1.4-2.6-3.6-2.8-6.6l0,0h30.1c0.2-1.6,0.4-3.9,0.4-6.9c0-7.2-2-12.7-5.9-16.6s-9-5.7-15.3-5.7
			c-6.9,0-12.3,2.2-16.3,6.6c-4,4.4-6,10.4-6,17.9c0,7.7,2,13.8,6,18.1C259.7,107,265.2,109.2,272.1,109.2z M280.5,79.1h-17.6
			c0.3-2.5,1.2-4.4,2.8-5.7c1.5-1.4,3.5-2.1,5.9-2.1C276.8,71.3,279.8,73.9,280.5,79.1L280.5,79.1z M312.2,109.2
			c5,0,8.8-1.5,11.7-4.6l0,0v3.5h13.2V78.4c0-12.3-6.6-18.4-19.9-18.4c-7.7,0-14.4,2-20.1,5.9l0,0l4.1,10.2c5-3.3,10-5,15.1-5
			c2.4,0,4.3,0.6,5.6,1.7c1.3,1.1,2,2.8,2,4.9l0,0v2.6c-2.5-1.1-5.9-1.7-10.3-1.7c-5.1,0-9.5,1.3-13.3,3.9s-5.7,6.3-5.7,11.2
			c0,5,1.6,8.8,4.9,11.4C302.8,107.8,307,109.2,312.2,109.2z M314.8,97.9c-4.8,0-7.2-1.4-7.2-4.1c0-3,2.8-4.5,8.3-4.5
			c2.9,0,5.5,0.4,8,1.1l0,0v4.2C321.2,96.8,318.1,97.9,314.8,97.9z M362.8,109.2c10.7,0,17.6-5.3,20.7-15.9l0,0l-12.8-3.7
			c-1.4,4.5-4,6.8-7.9,6.8c-2.5,0-4.5-1.1-6.1-3.3s-2.4-5-2.4-8.5c0-3.5,0.8-6.3,2.4-8.5c1.6-2.2,3.7-3.3,6.2-3.3
			c3.6,0,6.2,2,7.7,6.1l0,0l12.7-4.1c-3.1-9.8-9.9-14.7-20.6-14.7c-6.6,0-11.9,2.2-16,6.7c-4,4.4-6,10.4-6,18c0,7.7,2,13.7,6,18
			C350.7,107,356.1,109.2,362.8,109.2z M401.8,109.2c4.2,0,7.8-0.7,10.7-2.1l0,0l1.5-11.2c-2.7,1.2-5.4,1.8-8.1,1.8
			c-0.7,0-1.4-0.2-1.9-0.7s-0.8-1.1-0.8-2l0,0V72.7h10.2V61.1h-10.2V41.7L390,48v13.1h-6.4v11.7h6.4v23.5
			C390,104.8,393.9,109.2,401.8,109.2z M474.7,115.5l10.3-6.6l-5-7.3c6.1-6.3,9.1-14.9,9.1-25.7c0-4.2-0.5-8.2-1.6-11.9
			s-2.7-7.3-4.8-10.6c-2.2-3.3-5.1-5.9-8.9-7.8c-3.8-1.9-8.2-2.9-13.2-2.9c-4,0-7.7,0.6-11,1.9c-3.3,1.3-6,3-8.1,5.2
			c-2.2,2.2-3.9,4.7-5.4,7.6c-1.4,2.9-2.5,5.9-3.1,9c-0.6,3.1-1,6.3-1,9.6c0,3.3,0.3,6.5,1,9.6c0.6,3.1,1.7,6.1,3.1,9
			c1.4,2.9,3.2,5.4,5.4,7.6c2.2,2.2,4.9,3.9,8.1,5.2c3.3,1.3,6.9,1.9,11,1.9c3.1,0,6-0.4,8.9-1.2l0,0L474.7,115.5z M460.7,95.6
			c-2.5,0-4.7-0.6-6.6-1.8c-1.9-1.2-3.4-2.8-4.4-4.8s-1.8-4.1-2.3-6.3s-0.7-4.5-0.7-6.9c0-3.2,0.4-6.2,1.2-9s2.3-5.4,4.6-7.5
			c2.2-2.2,5-3.3,8.3-3.3s6.1,1.1,8.3,3.2c2.2,2.1,3.7,4.6,4.5,7.5c0.8,2.8,1.2,5.9,1.2,9.2c0,5.4-1,9.7-2.9,13.1l0,0l-5.2-7.7
			L456.2,88l5.2,7.6l0,0h-0.5L460.7,95.6z M509.4,109.2c5.6,0,9.9-1.8,12.9-5.4l0,0v4.3h13.3v-47h-13.3v24.6c0,3.6-0.7,6.3-2,8
			c-1.3,1.7-3.4,2.6-6.2,2.6c-2.8,0-4.8-0.9-5.9-2.6c-1.1-1.7-1.7-4.4-1.7-8.2l0,0V61.1h-13.3v30.5c0,3.2,0.5,6,1.5,8.4
			c1,2.4,2.4,4.2,4,5.5c1.7,1.3,3.4,2.2,5.2,2.8C505.6,108.9,507.5,109.2,509.4,109.2z M562.4,109.2c7.5,0,13.6-2.8,18.3-8.5l0,0
			l-7.7-7.7c-2.8,3.3-6.3,5-10.6,5c-2.6,0-4.8-0.7-6.5-2.2c-1.7-1.4-2.6-3.6-2.8-6.6l0,0h30.1c0.2-1.6,0.4-3.9,0.4-6.9
			c0-7.2-2-12.7-5.9-16.6c-3.9-3.8-9-5.7-15.3-5.7c-6.9,0-12.3,2.2-16.3,6.6s-6,10.4-6,17.9c0,7.7,2,13.8,6,18.1
			C550.1,107,555.5,109.2,562.4,109.2z M570.8,79.1h-17.6c0.3-2.5,1.2-4.4,2.8-5.7s3.5-2.1,5.9-2.1
			C567.2,71.3,570.1,73.9,570.8,79.1L570.8,79.1z M601,108V82.6c0-6.5,2.7-9.7,8.1-9.7c3,0,5.8,1.1,8.4,3.2l0,0l1.7-12.1
			c-2.5-2.6-5.6-4-9.3-4c-2.2,0-4,0.6-5.6,1.7c-1.6,1.2-2.7,2.4-3.3,3.6l0,0V61h-13.3v47H601z M641,125.9l25-64.8h-13.7l-9.5,25.1
			c-0.7,1.8-1.2,3.3-1.5,4.4c-0.3-1.1-0.8-2.6-1.5-4.4l0,0l-9.6-25.1h-13.8l17.7,46.4l-7.1,18.4H641z"/>
	</g>
</g>
</svg>
