<?xml version="1.0" encoding="utf-8"?>
<!-- Generator: Adobe Illustrator 25.4.1, SVG Export Plug-In . SVG Version: 6.00 Build 0)  -->
<svg version="1.1" id="Layer_1" xmlns="http://www.w3.org/2000/svg" xmlns:xlink="http://www.w3.org/1999/xlink" x="0px" y="0px"
	 viewBox="0 0 163.5 145.9" style="enable-background:new 0 0 163.5 145.9;" xml:space="preserve">
<style type="text/css">
	.st0{fill:#60DBFB;}
</style>
<g>
	<path class="st0" d="M134.4,47.2c-1.8-0.4-3.5-1.1-5.3-1.8c0.4-1.1,0.4-2.5,0.7-3.5c3.9-19.3,1.4-35.1-7.4-40
		C114-3,100,1.9,85.9,14.2c-1.4,1.1-2.8,2.5-4.2,3.9c-0.7-0.7-1.8-1.8-2.8-2.5C64.2,2.7,49.5-2.9,40.7,2.3
		c-8.4,4.9-11.2,19.6-7.4,37.9c0.4,1.8,0.7,3.5,1.1,5.6c-2.1,0.4-4.2,1.1-6,1.8C11.3,53.5,0,63,0,72.8C0,83,11.9,93.1,29.8,99.1
		c1.4,0.4,2.8,1.1,4.6,1.4c-0.4,1.8-0.7,3.9-1.4,6c-3.5,18.2-0.7,32.3,7.7,37.2c8.8,5.3,23.5,0,37.9-12.6c1.1-1.1,2.1-2.1,3.5-3.2
		c1.4,1.4,2.8,2.8,4.6,4.2c13.7,11.9,27.7,16.8,36.1,11.9c8.8-5.3,11.6-20.3,7.7-38.9c-0.4-1.4-0.7-2.8-1.1-4.6l3.2-1.1
		c18.6-6.3,30.9-16.1,30.9-26.3C163.5,63,151.9,53.5,134.4,47.2z M90.5,19.9C102.8,9.4,114,5.2,118.9,8c5.6,3.2,7.7,15.8,4.2,32.6
		c0,1.1-0.4,2.1-0.7,3.2c-7-1.8-14.4-2.8-21.7-3.5c-4.2-6-8.8-11.9-13.7-17.2C88.1,22.3,89.1,20.9,90.5,19.9z M53,89.6
		c1.8,2.8,3.5,5.6,5.3,8.4c-5.3-0.4-10.2-1.4-15.1-2.5c1.4-4.9,3.2-9.8,5.3-14.4C49.8,84,51.2,86.8,53,89.6z M43.2,50.7
		c4.9-1.1,9.8-1.8,14.7-2.5c-1.8,2.5-3.5,5.3-5.3,8.1c-1.4,2.8-3.2,5.6-4.6,8.4C46.3,60.2,44.6,55.6,43.2,50.7z M52,72.8
		c2.1-4.6,4.6-8.8,7-13c2.5-4.2,5.3-8.4,7.7-12.6c9.8-0.7,19.6-0.7,29.8,0c2.8,4.2,5.6,8.4,7.7,12.6c2.5,4.2,4.9,8.8,7,13
		c-2.1,4.6-4.6,8.8-6.7,13c-2.5,4.2-5.3,8.4-7.7,12.6c-4.9,0.4-9.8,0.4-15,0.4s-10.2,0-14.7-0.4c-2.8-4.2-5.6-8.4-8.1-12.6
		C56.5,81.9,54.1,77.4,52,72.8z M110.5,89.6c1.8-2.8,3.2-5.6,4.9-8.4c2.1,4.9,3.9,9.5,5.6,14.4c-5.3,1.1-10.2,2.1-15.1,2.5
		C107.4,95.3,109.1,92.5,110.5,89.6z M115.1,64.8c-1.4-2.8-2.8-5.6-4.6-8.4c-1.4-2.8-3.2-5.6-4.9-8.1c5.3,0.7,10.2,1.4,14.7,2.5
		C118.9,55.3,117.2,60.2,115.1,64.8z M82.1,28.3c3.5,3.9,6.7,7.4,9.5,11.6c-6.3-0.4-12.6-0.4-19.3,0C75.4,36,78.6,32.1,82.1,28.3z
		 M44.2,8.3c5.6-3.2,17.6,1.4,30.5,12.6c0.7,0.7,1.8,1.4,2.5,2.1c-4.9,5.6-9.8,11.2-14,17.2c-7.4,0.7-14.7,1.8-21.7,3.5
		c-0.4-1.4-0.7-3.2-1.1-4.9C37.2,23,39,11.5,44.2,8.3z M36.5,94.2c-1.4-0.4-2.8-1.1-4.2-1.4c-7-2.1-13.3-5.6-18.9-10.2
		c-4.2-3.5-6.3-7-6.3-9.8c0-6,8.8-13.3,23.8-18.6c1.8-0.7,3.9-1.1,5.6-1.8c2.1,7,4.9,14,8.1,20.7C41.4,79.8,38.6,86.8,36.5,94.2z
		 M74,126.1c-5.3,4.6-11.6,8.4-18.2,11.2c-4.9,1.8-9.1,1.8-11.6,0.4c-5.3-2.8-7.4-14.4-4.6-29.8c0.4-1.8,0.7-3.5,1.1-5.6
		c7.4,1.4,14.7,2.5,22.1,3.2c4.2,6.3,9.1,11.9,14,17.5C76.2,124,75.1,125.1,74,126.1z M82.1,117.7c-3.5-3.9-6.7-7.7-9.8-11.9
		c3.2,0,6.3,0,9.5,0c3.5,0,6.7,0,9.8,0C88.4,110,85.6,114.2,82.1,117.7z M124.5,127.5c-1.1,5.3-2.8,8.8-5.3,10.2
		c-5.3,2.8-16.1-0.7-28.1-11.2c-1.4-1.1-2.8-2.5-4.2-3.9c4.9-5.6,9.5-11.2,13.7-17.5c7.4-0.7,14.7-1.8,22.1-3.5
		c0,1.4,0.4,2.8,0.7,4.2C125.3,113.1,125.6,120.5,124.5,127.5z M130.5,92.8c-0.7,0.4-1.8,0.4-2.8,0.7c-2.1-7-5.3-14-8.1-20.7
		c3.2-6.7,6-13.3,8.1-20.3c1.8,0.4,3.2,1.1,4.9,1.4c15.1,5.3,24.6,13,24.6,18.6C156.5,79.1,146.6,87.2,130.5,92.8z"/>
	<path class="st0" d="M81.8,87.9c8.1,0,14.7-6.7,14.7-14.7c0-8.1-6.7-14.7-14.7-14.7S67.4,64.8,67,73.2C67,81.2,73.7,87.9,81.8,87.9
		z"/>
</g>
</svg>
