<?xml version="1.0" encoding="utf-8"?>
<!-- Generator: Adobe Illustrator 25.4.1, SVG Export Plug-In . SVG Version: 6.00 Build 0)  -->
<svg version="1.1" id="Layer_1" xmlns="http://www.w3.org/2000/svg" xmlns:xlink="http://www.w3.org/1999/xlink" x="0px" y="0px"
	 viewBox="0 0 161.4 174.9" style="enable-background:new 0 0 161.4 174.9;" xml:space="preserve">
<path d="M151.6,160.6c-3.9-4.2-19.1-14.8-17.8-21c1-4.6,6.3-9.7,8.5-14c4.1-7.8,6.6-17.2,7.2-26c2.9-42.9-34.2-80.8-77.9-74.5
	c-55.9,8-81.9,77.4-40.8,118.4c17.8,17.8,46,24.3,69.8,16.8c6.3-2,12.4-4.7,18-8.4c2.4-1.6,5.8-5.2,9-4.7c9.1,1.4,16.3,23,25.7,21.5
	C157.7,168,152.7,161.9,151.6,160.6z M115.7,146.5c-1.5-6.2-4.7-12.2-9.2-16.9c-1.1-1.1-6.2-5.5-7-1.7c-1,4.2,9.5,17.5,11.2,22.7
	c-18.4,10.4-42.6,9.8-61,0c3.6-10.9,9-20.4,20-25.1c14.2-6.1,26.3-2.3,37.7-15.9c21-25.2-1.5-66.6-34.7-59.5
	c-34.1,7.3-37.2,55.2-7,69.5v1c-10.2,4.9-18.4,15-21,26c-28.4-12-33.6-54.2-21.9-79c11.2-24,36.7-37.7,62.9-36
	c43.2,3,70.4,51.1,52.2,89.9C133.4,131.2,126.1,142.5,115.7,146.5z M76.7,55.5c37.1-5.8,45.1,54.7,8,60.3
	C46.1,121.5,38.7,61.4,76.7,55.5z"/>
</svg>
