<?xml version="1.0" standalone="no"?>
<!DOCTYPE svg PUBLIC "-//W3C//DTD SVG 20010904//EN"
 "http://www.w3.org/TR/2001/REC-SVG-20010904/DTD/svg10.dtd">
<svg version="1.0" xmlns="http://www.w3.org/2000/svg"
 width="1248.000000pt" height="1248.000000pt" viewBox="0 0 1248.000000 1248.000000"
 preserveAspectRatio="xMidYMid meet">
<metadata>
Created by potrace 1.14, written by Peter Selinger 2001-2017
</metadata>
<g transform="translate(0.000000,1248.000000) scale(0.100000,-0.100000)"
fill="#000000" stroke="none">
<path d="M4000 9108 c-115 -26 -110 -24 -200 -66 -30 -14 -58 -24 -62 -24 -5
1 -8 -2 -8 -8 0 -5 -4 -10 -9 -10 -12 0 -105 -61 -109 -72 -2 -4 -10 -8 -18
-8 -8 0 -14 -7 -14 -15 0 -8 -4 -15 -10 -15 -11 0 -120 -110 -120 -121 0 -5
-9 -17 -21 -27 -39 -37 -131 -216 -145 -282 -1 -8 -10 -39 -18 -69 -28 -99
-31 -158 -22 -411 15 -407 20 -735 20 -1340 1 -388 -1 -750 -3 -805 -5 -118
-31 -247 -65 -320 -24 -54 -98 -135 -122 -135 -8 0 -14 -5 -14 -11 0 -5 -4 -8
-9 -4 -6 3 -13 0 -18 -8 -16 -26 -164 -79 -223 -79 -112 -1 -235 24 -311 62
-80 41 -279 262 -279 310 0 8 -11 37 -24 65 -34 71 -62 148 -86 240 -76 291
-239 499 -495 630 -146 75 -250 99 -435 99 -123 0 -137 -1 -234 -23 -62 -15
-206 -70 -227 -88 -8 -7 -19 -13 -24 -13 -31 0 -211 -156 -277 -240 -102 -131
-180 -332 -194 -503 -7 -88 -7 -81 -5 -87 1 -3 3 -34 6 -70 4 -68 13 -117 40
-235 9 -38 18 -77 20 -85 9 -37 78 -237 99 -283 29 -64 93 -197 106 -217 32
-55 55 -96 55 -100 1 -8 155 -245 182 -280 31 -39 180 -228 198 -250 20 -25
209 -213 255 -254 75 -67 320 -246 337 -246 3 0 17 -8 31 -19 40 -27 155 -87
257 -132 99 -44 315 -121 315 -112 0 3 6 1 13 -4 6 -6 30 -14 52 -18 22 -5 47
-10 55 -12 14 -3 30 -7 83 -18 12 -2 38 -7 57 -9 19 -3 53 -8 74 -12 97 -16
397 -23 466 -12 19 4 65 9 101 12 36 3 90 10 120 16 30 6 67 13 83 16 17 3 71
16 120 30 50 14 98 26 106 28 55 14 266 98 378 151 73 35 135 64 139 64 3 -1
9 3 12 8 3 4 22 17 41 27 19 11 51 29 70 41 19 12 39 22 44 23 5 0 12 4 15 9
3 4 47 37 96 73 50 35 95 69 102 75 6 5 37 33 69 60 100 87 215 208 263 279 8
12 18 23 21 26 4 3 21 28 40 55 19 28 37 52 40 55 25 19 200 349 200 377 0 7
5 13 12 13 6 0 9 3 5 6 -3 3 6 36 20 72 14 37 26 72 27 77 2 6 9 30 16 55 8
25 15 52 16 60 1 8 7 27 13 43 6 15 8 27 5 27 -2 0 0 8 5 18 5 10 12 38 16 62
4 25 8 47 10 50 7 11 36 193 40 244 24 349 25 1251 0 2136 -14 528 -18 615
-30 686 -24 135 -100 312 -180 414 -33 42 -176 179 -215 206 -91 63 -243 130
-335 148 -16 4 -41 9 -55 12 -63 16 -266 11 -350 -8z"/>
<path d="M9037 9114 c-1 -1 -27 -5 -57 -8 -30 -3 -65 -8 -77 -11 -13 -3 -31
-7 -41 -9 -115 -26 -261 -99 -361 -181 -79 -65 -190 -195 -218 -255 -3 -8 -9
-17 -13 -20 -19 -16 -93 -211 -104 -278 -3 -17 -9 -47 -12 -64 -9 -45 -9 -223
0 -278 4 -25 9 -54 11 -65 4 -31 65 -208 75 -220 5 -6 22 -35 38 -65 16 -30
52 -95 80 -144 29 -49 52 -93 52 -97 0 -5 4 -9 8 -9 4 0 13 -12 19 -27 7 -16
25 -50 42 -78 17 -27 35 -59 41 -70 5 -11 24 -45 42 -76 18 -31 66 -115 106
-185 40 -71 84 -149 98 -174 14 -25 36 -63 48 -85 11 -22 25 -44 29 -50 4 -5
53 -91 109 -190 56 -99 114 -200 130 -224 15 -25 28 -48 28 -52 0 -6 61 -113
90 -159 6 -8 16 -26 22 -40 7 -14 19 -36 28 -50 10 -14 31 -50 47 -80 17 -30
47 -84 68 -120 20 -36 51 -90 67 -120 17 -30 37 -62 44 -71 8 -8 14 -19 14
-24 0 -6 80 -148 147 -260 7 -11 15 -27 20 -35 4 -8 20 -37 36 -65 16 -27 45
-79 64 -115 20 -36 41 -72 48 -80 7 -8 16 -25 19 -37 4 -13 12 -23 17 -23 5 0
9 -8 9 -17 0 -9 6 -24 13 -32 20 -24 107 -179 107 -191 0 -5 5 -10 10 -10 6 0
10 -4 10 -9 0 -4 23 -47 50 -95 28 -48 50 -91 50 -96 0 -6 5 -10 10 -10 6 0
10 -4 10 -9 0 -14 380 -676 391 -679 5 -2 9 -9 9 -16 0 -13 99 -128 139 -161
103 -85 272 -185 314 -185 7 0 17 -3 21 -7 3 -4 12 -8 19 -9 38 -8 58 -13 65
-18 29 -18 291 -27 362 -12 136 28 288 84 362 134 22 15 51 34 64 43 32 21
142 133 181 184 17 22 45 65 63 95 34 56 93 190 84 190 -2 0 2 12 9 28 33 64
50 263 34 402 -8 75 -51 220 -87 291 -41 82 -170 310 -188 332 -8 9 -11 17 -7
17 4 0 1 8 -7 18 -14 16 -78 128 -102 179 -6 13 -14 23 -18 23 -5 0 -8 4 -8 9
0 8 -164 302 -190 341 -6 8 -13 22 -17 30 -4 8 -26 48 -50 88 -24 41 -43 75
-43 77 0 2 -17 32 -38 66 -21 35 -52 89 -69 119 -16 30 -39 71 -50 90 -11 19
-59 103 -105 185 -47 83 -106 185 -132 228 -25 43 -46 81 -46 84 0 3 -18 34
-40 69 -22 35 -40 66 -40 68 0 3 -13 27 -29 54 -34 59 -72 125 -97 172 -11 19
-21 37 -25 40 -3 3 -13 21 -23 40 -10 19 -27 51 -39 71 -12 21 -44 77 -72 125
-27 49 -55 98 -62 109 -7 11 -18 32 -25 48 -7 15 -16 27 -20 27 -4 0 -8 4 -8
10 0 9 -130 243 -147 265 -4 6 -16 26 -25 45 -10 19 -29 55 -44 80 -44 77
-106 183 -136 233 -15 26 -28 49 -28 51 0 2 -32 59 -71 127 -40 68 -85 148
-102 177 -16 30 -56 99 -88 154 -32 55 -59 104 -59 109 0 5 -4 9 -8 9 -4 0
-15 12 -24 28 -52 85 -211 218 -337 281 -102 51 -184 76 -314 98 -29 5 -166
10 -170 7z"/>
<path d="M7247 5434 c-1 -1 -22 -4 -47 -7 -76 -10 -112 -18 -195 -47 -150 -52
-253 -116 -367 -230 -288 -288 -362 -726 -187 -1105 17 -39 36 -71 40 -73 5
-2 9 -9 9 -15 0 -30 141 -190 219 -250 31 -23 58 -44 61 -47 19 -19 161 -90
220 -110 186 -62 386 -71 565 -25 33 9 65 17 70 18 6 1 16 6 23 10 6 5 12 6
12 3 0 -8 159 74 208 107 45 31 164 136 171 151 2 5 12 17 22 27 58 58 135
197 175 316 38 113 48 178 48 303 -1 291 -113 548 -316 725 -38 33 -75 66 -83
73 -7 6 -18 12 -24 12 -6 0 -11 4 -11 10 0 5 -11 12 -25 16 -14 3 -25 10 -25
14 0 7 -29 18 -47 18 -3 0 -9 4 -12 9 -9 12 -159 68 -209 78 -71 13 -285 28
-295 19z"/>
</g>
</svg>
